{"glyphs":{"0":{"ha":824,"x_min":0,"x_max":840,"o":"m 836 793 q 805 561 831 685 q 739 313 779 438 q 581 -37 672 110 q 382 -265 490 -183 q 194 -340 282 -340 q 53 -265 103 -340 q 24 -209 35 -239 q 6 -136 13 -179 q 2 -117 3 -125 q 1 -100 1 -110 q 0 -76 0 -90 q 0 -36 0 -61 q 1 10 0 -10 q 2 46 1 29 q 5 80 3 63 q 11 121 7 97 q 51 313 24 213 q 115 514 78 413 q 199 713 153 615 q 297 897 244 811 q 604 1192 456 1156 q 641 1196 619 1196 q 675 1193 663 1196 q 764 1081 746 1175 q 768 1058 765 1074 q 773 1026 771 1043 q 776 996 775 1010 q 778 979 778 982 q 772 969 778 974 q 763 969 767 967 q 754 989 758 972 q 742 1036 749 1013 q 732 1069 736 1060 q 680 1123 713 1115 q 594 1103 647 1131 q 442 958 522 1064 q 285 696 361 853 q 174 424 219 560 q 105 167 128 288 q 84 -50 82 47 q 115 -204 86 -147 q 136 -233 122 -219 q 163 -251 150 -247 q 256 -248 201 -267 q 376 -181 310 -229 q 406 -157 389 -172 q 440 -124 422 -142 q 473 -89 457 -107 q 500 -57 489 -71 q 635 163 575 38 q 739 444 696 289 q 780 614 764 531 q 803 773 796 697 q 810 915 811 849 q 799 1032 808 981 q 796 1058 794 1051 q 806 1064 797 1064 q 815 1058 813 1064 q 824 1028 818 1051 q 838 918 835 975 q 836 793 840 861 z "},"1":{"ha":493,"x_min":81,"x_max":692,"o":"m 683 1136 q 670 1108 681 1131 q 646 1058 660 1086 q 439 584 535 833 q 264 64 343 335 q 228 -65 247 8 q 183 -237 208 -137 q 159 -331 168 -296 q 144 -387 150 -367 q 133 -419 138 -408 q 124 -437 129 -429 q 100 -454 115 -454 q 86 -447 92 -454 q 81 -438 82 -442 q 82 -419 81 -435 q 88 -367 83 -401 q 101 -291 93 -333 q 120 -202 110 -249 q 142 -111 131 -156 q 231 202 181 43 q 342 515 282 361 q 468 811 401 668 q 604 1079 535 954 q 609 1089 607 1085 q 614 1097 611 1093 q 618 1106 617 1101 q 603 1097 618 1107 q 568 1071 588 1086 q 463 994 506 1025 q 392 944 421 964 q 342 913 363 925 q 304 892 322 901 q 264 876 279 881 q 229 871 249 872 q 209 870 214 869 q 197 874 204 871 q 185 881 186 879 q 174 898 176 888 q 178 915 172 908 q 204 924 189 926 q 213 915 211 921 q 211 906 215 910 q 218 901 207 901 q 281 921 239 901 q 314 940 297 929 q 355 967 331 950 q 413 1008 379 983 q 494 1068 446 1032 q 573 1126 543 1104 q 621 1160 603 1149 q 648 1176 639 1172 q 664 1181 657 1181 q 686 1168 678 1181 q 683 1136 692 1157 z "},"2":{"ha":925,"x_min":26,"x_max":944,"o":"m 722 1144 q 831 1082 792 1144 q 871 907 871 1019 q 852 741 871 832 q 799 551 833 650 q 716 349 765 453 q 604 143 667 244 q 574 94 590 119 q 540 44 557 69 q 508 -2 524 19 q 482 -37 493 -24 q 476 -46 479 -43 q 474 -50 474 -49 q 479 -51 475 -50 q 493 -54 485 -54 q 620 -83 553 -62 q 746 -132 688 -104 q 838 -184 799 -157 q 906 -242 876 -211 q 936 -287 928 -265 q 936 -322 944 -308 q 915 -328 928 -335 q 890 -311 911 -325 q 822 -268 868 -297 q 641 -175 726 -210 q 465 -125 556 -140 q 436 -120 446 -122 q 421 -119 426 -118 q 413 -122 415 -119 q 406 -131 411 -125 q 338 -197 371 -167 q 272 -249 304 -228 q 119 -306 185 -306 q 71 -296 89 -306 q 26 -219 26 -275 q 97 -97 26 -144 q 201 -56 133 -71 q 351 -42 269 -42 l 369 -42 l 392 -15 q 522 169 458 68 q 640 378 586 271 q 733 590 693 485 q 794 786 774 694 q 812 980 818 899 q 768 1092 806 1061 q 647 1092 724 1126 q 563 1035 606 1072 q 483 951 521 999 q 415 849 446 904 q 364 738 383 793 q 343 667 349 696 q 338 606 338 639 q 339 575 338 582 q 343 560 340 568 q 371 528 351 536 q 383 524 376 525 q 407 524 390 524 q 426 523 418 524 q 435 521 433 522 q 438 513 439 518 q 433 504 438 507 q 413 497 426 500 q 383 494 399 494 q 330 515 350 494 q 304 571 310 535 q 306 657 299 607 q 338 765 314 707 q 398 885 363 828 q 476 992 433 943 q 564 1076 518 1040 q 654 1131 610 1113 q 722 1144 690 1144 m 293 -114 q 285 -115 290 -114 q 276 -115 281 -115 q 110 -207 113 -132 l 110 -219 l 124 -219 q 183 -201 149 -218 q 254 -156 218 -185 q 286 -128 271 -142 q 300 -114 301 -115 l 293 -114 z "},"3":{"ha":836,"x_min":-4,"x_max":851,"o":"m 846 1024 q 672 757 828 933 q 599 679 640 722 q 501 583 557 636 l 485 567 l 503 567 q 668 531 599 567 q 771 426 738 494 q 794 257 807 353 q 758 124 786 192 q 690 -6 731 56 q 599 -119 650 -68 q 492 -203 547 -171 q 379 -246 439 -233 q 352 -250 368 -249 q 319 -251 336 -251 q 288 -250 303 -251 q 260 -246 272 -249 q 97 -157 165 -225 q 74 -132 82 -142 q 56 -106 67 -122 q 6 23 17 -46 q 15 157 -4 92 q 86 292 33 218 q 98 307 93 300 q 104 315 103 314 q 117 317 111 321 q 124 306 124 314 q 117 289 124 300 q 94 240 104 268 q 78 183 85 211 q 76 156 76 172 q 75 121 75 139 q 76 86 75 103 q 78 60 76 69 q 131 -67 93 -14 q 228 -147 169 -119 q 272 -163 251 -158 q 319 -169 292 -168 q 385 -164 356 -171 q 450 -140 415 -157 q 566 -53 511 -110 q 662 69 621 3 q 724 206 703 136 q 739 335 746 276 q 617 486 724 453 q 535 497 585 497 q 353 454 443 497 q 319 442 331 443 q 297 447 308 440 q 279 467 286 454 q 275 490 272 479 q 285 510 278 501 q 313 536 293 519 q 517 719 401 604 q 627 835 582 785 q 706 935 672 886 q 744 997 729 967 q 763 1042 760 1026 q 760 1051 764 1050 q 738 1051 754 1053 q 707 1044 722 1049 q 628 1015 671 1035 q 540 970 585 996 q 451 914 494 944 q 372 853 407 883 q 360 841 365 846 q 356 836 354 836 q 358 836 356 835 q 363 840 360 838 q 379 842 372 849 q 349 807 396 825 q 288 813 304 792 q 288 871 271 836 q 323 917 297 892 q 384 969 349 942 q 463 1024 419 996 q 556 1075 507 1051 q 779 1135 704 1149 q 849 1069 836 1124 q 851 1049 851 1058 q 846 1024 850 1039 z "},"4":{"ha":693,"x_min":85,"x_max":906,"o":"m 900 1185 q 892 1168 899 1182 q 874 1136 885 1154 q 728 852 800 1008 q 594 532 657 696 q 592 522 592 524 q 594 521 592 521 q 614 522 597 521 q 651 525 631 524 q 689 528 671 526 q 714 531 707 531 q 735 531 729 532 q 740 522 739 528 q 736 513 740 515 q 722 508 735 511 q 693 503 710 506 q 653 494 674 499 q 616 487 633 490 q 587 481 599 483 q 575 476 575 478 q 567 456 574 475 q 550 410 560 438 q 531 353 540 383 q 514 297 521 322 q 476 159 492 225 q 448 28 460 93 q 429 -101 436 -36 q 418 -232 422 -165 q 415 -281 417 -271 q 410 -299 414 -292 q 398 -310 407 -306 q 382 -315 389 -315 q 343 -272 354 -315 q 339 -209 339 -250 q 344 -116 339 -168 q 358 -6 349 -64 q 379 110 367 53 q 415 251 396 182 q 461 397 435 319 l 479 453 l 472 451 q 433 441 461 449 q 368 423 404 433 q 292 400 332 413 q 218 375 253 388 q 156 356 174 360 q 125 356 139 353 q 90 379 103 360 q 85 391 86 386 q 85 407 85 396 q 89 434 85 422 q 107 468 93 446 q 160 546 125 500 q 240 645 194 592 q 337 758 285 699 q 443 874 389 817 q 551 985 497 932 q 653 1082 606 1039 q 703 1126 683 1110 q 738 1149 724 1142 q 761 1156 751 1157 q 779 1146 771 1154 q 782 1096 803 1126 q 758 1070 779 1092 q 710 1022 738 1049 q 622 934 661 974 q 549 860 582 894 q 486 795 515 826 q 431 735 457 764 q 334 624 375 674 q 250 522 293 575 q 233 501 242 513 q 217 478 224 489 q 205 461 210 468 q 200 454 200 454 q 218 458 200 453 q 279 474 246 465 q 344 489 313 482 q 371 494 358 492 q 399 499 383 496 q 437 504 415 501 q 490 511 458 507 l 501 513 l 507 526 q 588 722 546 626 q 672 899 631 817 q 754 1049 714 982 q 831 1163 794 1117 q 879 1210 864 1207 q 898 1204 890 1213 q 900 1185 906 1196 z "},"5":{"ha":725,"x_min":3,"x_max":824,"o":"m 819 1036 q 800 1036 814 1028 q 794 1038 797 1038 q 781 1039 790 1039 q 756 1038 772 1039 q 711 1038 739 1038 q 638 1036 676 1038 q 578 1033 599 1035 q 535 1031 557 1032 q 503 1031 514 1031 l 478 1031 l 475 1024 q 463 994 472 1015 q 442 944 454 972 q 417 885 431 917 q 390 825 403 854 q 363 763 374 789 q 351 735 351 736 l 356 735 q 360 735 358 735 q 365 736 363 736 q 517 708 444 747 q 632 589 589 668 q 664 514 651 556 q 683 428 676 472 q 686 391 685 414 q 688 343 688 368 q 686 294 688 318 q 683 257 685 271 q 650 110 672 179 q 594 -18 628 40 q 519 -122 561 -76 q 428 -194 478 -167 q 281 -238 358 -235 q 133 -210 204 -242 q 62 -157 92 -190 q 17 -82 32 -124 q 3 3 4 -44 q 14 128 3 50 q 18 155 17 147 q 22 165 19 163 q 39 164 31 172 q 42 157 42 161 q 42 138 43 153 q 42 88 40 115 q 49 38 44 60 q 213 -147 82 -118 q 277 -152 242 -154 q 342 -140 313 -150 q 483 -33 421 -112 q 578 165 544 46 q 597 253 590 210 q 603 343 603 296 q 594 447 603 401 q 564 533 585 492 q 415 653 513 640 q 324 631 371 658 q 307 623 315 626 q 294 618 299 619 q 256 624 272 613 q 238 657 240 635 q 243 691 236 671 q 274 757 250 711 q 361 917 317 844 q 439 1029 406 989 l 449 1039 l 443 1044 q 438 1070 432 1056 q 461 1096 443 1085 q 543 1115 485 1108 q 672 1121 601 1122 q 772 1106 738 1118 q 819 1065 807 1093 q 824 1048 824 1057 q 819 1036 824 1039 z "},"6":{"ha":681,"x_min":11,"x_max":810,"o":"m 701 1110 q 732 1107 718 1110 q 767 1095 749 1104 q 793 1075 785 1086 q 804 1022 810 1051 q 792 1008 800 1008 q 781 1025 782 1008 q 772 1042 779 1039 q 746 1043 765 1046 q 649 1006 697 1036 q 540 914 600 976 q 456 817 500 872 q 375 708 411 763 l 358 685 l 369 686 q 385 688 375 688 q 404 688 394 688 q 549 620 490 686 q 626 436 608 554 q 632 367 631 410 q 631 293 633 324 q 583 80 622 185 q 483 -107 544 -25 q 274 -260 390 -232 q 251 -263 264 -262 q 225 -264 239 -264 q 199 -263 211 -264 q 179 -260 188 -262 q 147 -249 163 -256 q 117 -233 131 -243 q 85 -207 101 -224 q 58 -175 68 -190 q 33 -124 43 -154 q 15 -61 22 -93 q 12 -28 13 -49 q 11 17 11 -7 q 13 63 11 40 q 17 101 14 86 q 28 168 21 132 q 44 233 36 204 q 120 435 72 329 q 229 642 168 540 q 360 835 290 743 q 503 996 431 926 q 594 1072 553 1044 q 672 1107 635 1099 q 701 1110 686 1110 m 331 643 l 318 622 q 201 405 250 510 q 126 207 153 300 q 103 -60 81 43 q 137 -139 113 -108 q 197 -176 161 -169 q 232 -178 210 -179 q 268 -172 254 -176 q 358 -119 314 -158 q 438 -22 401 -79 q 501 105 475 35 q 540 253 528 175 q 548 338 547 294 q 543 419 549 382 q 526 493 538 457 q 497 556 514 529 q 432 620 472 597 q 344 643 392 643 l 331 643 z "},"7":{"ha":733,"x_min":169,"x_max":971,"o":"m 968 1069 q 963 1063 967 1067 q 954 1056 958 1060 q 926 1030 943 1047 q 897 997 910 1013 q 834 907 868 961 q 763 787 800 853 q 689 647 726 721 q 617 497 651 574 q 599 458 610 482 q 580 413 589 435 q 564 374 571 390 q 557 357 557 358 q 566 355 557 356 q 588 353 575 354 q 638 345 619 350 q 667 329 656 340 q 676 293 686 310 q 653 281 672 285 q 578 274 633 276 q 543 272 558 272 q 526 269 528 271 q 517 250 524 268 q 490 174 510 232 q 462 85 475 128 q 437 -1 449 43 q 414 -94 425 -46 q 390 -203 403 -143 q 372 -276 379 -258 q 354 -300 365 -294 q 327 -301 339 -307 q 310 -275 315 -294 q 308 -240 308 -267 q 311 -196 308 -214 q 326 -106 315 -157 q 351 1 336 -56 q 383 116 365 57 q 419 231 400 175 l 431 264 l 422 264 q 408 263 418 264 q 386 261 397 263 q 338 258 369 260 q 276 253 307 256 q 222 250 246 251 q 194 249 199 249 q 175 258 181 249 q 178 274 169 267 q 217 292 185 281 q 289 314 250 303 q 356 331 321 324 q 456 347 392 338 q 463 353 461 349 q 474 376 465 357 q 487 409 478 389 q 505 451 496 429 q 522 493 514 474 q 535 521 531 513 q 636 726 589 639 q 735 890 683 813 q 778 953 754 919 q 818 1004 803 986 q 829 1019 829 1018 q 811 1014 821 1017 q 792 1008 803 1011 q 769 1001 782 1004 q 593 950 671 971 q 453 916 515 929 q 342 897 392 903 q 251 890 293 890 q 197 894 210 892 q 183 906 183 896 q 188 913 183 910 q 206 919 192 915 q 249 929 221 924 q 325 943 276 935 q 424 964 376 953 q 528 990 472 975 q 654 1024 585 1004 q 819 1074 724 1044 q 886 1094 863 1086 q 922 1104 910 1101 q 937 1108 933 1107 q 944 1108 940 1108 q 963 1101 954 1108 q 971 1085 969 1094 q 968 1069 971 1074 z "},"8":{"ha":754,"x_min":-111,"x_max":714,"o":"m 646 1104 q 714 1036 710 1101 q 713 1021 714 1029 q 711 1006 713 1013 q 689 938 706 975 q 642 849 672 900 q 565 731 611 799 q 451 572 518 663 q 398 499 419 529 q 360 448 376 469 q 333 410 344 426 q 308 376 321 393 q 285 344 292 356 q 275 331 279 338 q 294 336 275 329 q 338 350 314 343 q 386 360 363 357 q 443 362 408 363 q 497 357 478 361 q 628 290 579 339 q 683 188 672 246 q 674 64 694 131 q 624 -33 658 17 q 539 -131 589 -83 q 426 -224 489 -179 q 290 -304 363 -268 q 66 -378 161 -368 q -75 -342 -29 -387 q -111 -244 -111 -307 q -96 -149 -111 -200 q -44 -26 -81 -97 q 62 165 -1 64 q 218 397 125 267 q 231 416 225 407 q 242 432 236 425 q 253 446 247 439 q 247 447 253 447 q 222 454 240 447 q 149 503 178 469 q 113 583 119 538 q 111 628 110 603 q 119 676 113 654 q 174 795 135 736 q 275 911 213 854 q 362 979 314 946 q 458 1038 410 1013 q 550 1081 506 1064 q 626 1103 594 1099 q 646 1104 633 1104 m 631 1056 q 565 1043 604 1056 q 490 1011 529 1031 q 413 967 451 992 q 339 915 375 943 q 274 857 303 886 q 193 755 224 807 q 153 655 163 703 q 155 567 143 607 q 201 500 167 526 q 229 484 213 493 q 258 472 246 475 l 269 468 l 290 499 q 319 537 300 511 q 356 586 338 563 q 422 676 394 639 q 469 742 449 714 q 506 792 490 769 q 538 838 521 814 q 649 1032 635 978 q 651 1045 651 1043 q 650 1050 651 1047 q 631 1056 646 1056 m 354 294 q 343 294 349 294 q 331 293 338 293 q 306 290 319 292 q 279 287 292 289 q 257 283 267 285 q 243 281 247 282 q 231 266 242 281 q 206 231 221 251 q 176 185 192 210 q 147 140 160 161 q 15 -100 60 1 q -26 -251 -31 -201 q -23 -269 -25 -264 q -14 -282 -21 -275 q 48 -294 1 -297 q 157 -271 94 -292 q 217 -249 192 -260 q 278 -219 242 -239 q 480 -81 396 -160 q 593 74 564 -3 q 601 174 613 131 q 569 229 594 204 q 508 269 544 254 q 438 289 478 282 q 354 294 399 296 z "},"9":{"ha":721,"x_min":-111,"x_max":740,"o":"m 654 1151 q 670 1149 663 1150 q 685 1144 678 1147 q 707 1131 696 1142 q 724 1111 718 1121 q 732 1031 740 1076 q 729 998 729 1024 q 729 914 729 972 q 729 849 729 875 q 728 802 729 824 q 726 760 728 781 q 724 713 725 739 q 703 542 717 635 q 670 354 689 450 q 629 167 651 258 q 585 4 607 76 q 460 -264 535 -157 q 290 -419 386 -371 q 228 -442 258 -435 q 165 -453 199 -450 q 45 -429 100 -456 q -47 -353 -10 -403 q -71 -312 -58 -337 q -89 -268 -83 -287 q -94 -249 -92 -262 q -101 -222 -97 -236 q -107 -197 -104 -208 q -110 -182 -110 -185 q -97 -164 -111 -164 q -81 -182 -87 -164 q -42 -252 -69 -214 q 15 -315 -14 -290 q 171 -367 88 -375 q 354 -261 272 -356 q 494 6 436 -167 q 543 173 518 76 q 597 410 568 269 q 649 679 629 561 q 679 876 669 797 q 682 906 682 904 q 675 899 682 908 q 665 886 665 886 q 660 876 664 885 q 653 856 657 867 q 630 799 643 829 q 603 737 617 768 q 574 676 589 706 q 544 622 558 647 q 399 413 474 494 q 254 308 324 332 q 238 305 246 306 q 217 304 231 304 q 195 305 200 304 q 179 311 190 306 q 126 376 139 331 q 122 422 122 392 q 125 475 121 453 q 182 652 142 558 q 281 840 222 746 q 376 972 325 911 q 475 1072 426 1033 q 654 1151 578 1154 m 653 1106 q 574 1076 619 1104 q 485 1000 529 1049 q 413 909 449 961 q 344 799 378 857 q 283 679 311 740 q 236 560 256 618 q 214 481 221 514 q 207 421 207 449 q 210 392 207 399 q 224 383 214 385 q 260 391 238 382 q 307 417 282 400 q 392 488 347 442 q 474 592 436 535 q 570 762 524 667 q 649 953 617 857 q 664 1001 657 976 q 676 1045 671 1025 q 685 1078 682 1065 q 688 1093 689 1092 q 679 1100 688 1097 q 653 1106 669 1106 z "},"\u0000":{"ha":0,"x_min":0,"x_max":0,"o":""},"\r":{"ha":394,"x_min":0,"x_max":0,"o":""}," ":{"ha":394,"x_min":0,"x_max":0,"o":""},"D":{"ha":875,"x_min":-208,"x_max":957,"o":"m 726 1125 q 781 1113 753 1125 q 878 944 858 1072 q 880 914 879 933 q 881 873 881 894 q 879 830 881 851 q 876 793 878 808 q 833 566 865 693 q 753 308 801 439 q 715 209 735 260 q 668 106 694 158 l 656 79 l 676 88 q 744 114 704 99 q 813 139 785 129 q 908 164 871 158 q 954 161 944 169 q 957 152 957 158 q 954 143 957 146 q 939 140 949 140 q 892 133 922 140 q 824 114 863 126 q 741 85 785 101 q 653 49 697 68 l 636 42 l 622 17 q 508 -163 574 -71 q 354 -357 442 -256 q 247 -477 297 -425 q 151 -569 197 -529 q 62 -639 106 -610 q -28 -689 18 -668 q -131 -722 -92 -719 q -192 -701 -171 -725 q -206 -680 -203 -690 q -207 -650 -208 -669 q -204 -627 -207 -636 q -194 -594 -201 -618 q -150 -490 -174 -532 q -90 -404 -126 -449 q -50 -360 -75 -386 q -4 -315 -25 -335 q 9 -301 7 -304 q 10 -296 11 -299 q 6 -254 7 -287 q 8 -192 6 -221 q 44 33 18 -93 q 113 313 69 160 q 178 535 146 433 q 246 728 211 638 q 291 835 268 783 q 337 931 314 888 q 381 1006 360 974 q 421 1058 403 1039 q 439 1071 433 1071 q 453 1054 454 1071 q 440 1026 451 1051 q 411 964 429 1000 q 372 883 389 919 q 342 814 356 847 q 314 746 328 781 q 285 669 300 711 q 266 617 276 649 q 246 558 256 586 q 230 508 236 529 q 224 488 224 488 q 226 493 225 489 q 229 499 228 496 q 233 508 231 503 q 262 572 246 538 q 294 640 278 607 q 325 703 310 674 q 351 754 340 733 q 419 864 383 811 q 490 961 454 917 q 562 1040 526 1006 q 628 1093 597 1074 q 726 1125 681 1126 m 722 1089 q 492 915 629 1093 q 314 619 397 793 q 267 517 293 575 q 217 403 242 460 q 174 301 193 347 q 149 232 156 254 q 135 182 143 215 q 117 109 126 149 q 99 28 108 69 q 85 -42 90 -12 q 72 -112 78 -74 q 63 -183 67 -150 q 58 -239 60 -217 q 60 -261 57 -261 q 64 -258 61 -261 q 69 -255 67 -257 q 75 -250 72 -253 q 155 -192 110 -224 q 253 -128 200 -161 q 363 -65 306 -96 q 476 -4 419 -33 l 526 21 l 546 53 q 649 263 599 147 q 744 514 700 379 q 799 694 779 618 q 826 836 818 769 q 829 872 828 851 q 830 914 831 893 q 828 953 829 935 q 825 981 826 971 q 735 1089 801 1076 l 722 1089 m 500 -22 q 488 -29 493 -25 q 475 -35 482 -32 q 460 -43 468 -39 q 293 -135 374 -87 q 150 -228 213 -183 q 119 -251 135 -239 q 89 -275 103 -264 q 65 -295 75 -286 q 54 -307 56 -304 q 49 -312 51 -310 q 43 -317 46 -315 q 25 -331 38 -319 q -3 -359 13 -343 q -33 -393 -18 -375 q -60 -426 -49 -411 q -137 -603 -133 -529 q -132 -637 -139 -637 q -103 -628 -126 -637 q -57 -607 -81 -618 q -3 -578 -29 -593 q 48 -543 22 -562 q 100 -500 74 -524 q 158 -444 126 -476 q 327 -257 243 -360 q 478 -56 411 -154 q 494 -33 488 -42 q 500 -22 500 -24 z "},"E":{"ha":944,"x_min":76,"x_max":1235,"o":"m 1232 1051 q 1217 991 1226 1019 q 1190 931 1207 963 q 1162 881 1179 908 q 1129 833 1144 853 q 1042 740 1090 785 q 939 655 993 694 q 828 585 885 615 q 719 536 772 554 q 686 525 700 529 q 647 517 672 521 q 624 513 629 514 q 615 515 618 513 q 610 529 608 521 q 633 549 610 533 q 736 611 692 583 q 815 663 781 639 q 878 707 850 686 q 933 751 906 728 q 1053 869 1004 811 q 1131 986 1103 926 q 1167 1085 1158 1042 q 1160 1143 1175 1129 q 1079 1151 1142 1160 q 931 1110 1017 1142 q 764 1038 847 1079 q 602 946 681 996 q 453 840 524 896 q 326 725 383 783 q 257 647 289 686 q 202 574 225 608 q 167 512 179 540 q 154 465 154 483 q 160 447 154 453 q 203 426 171 433 q 300 413 236 418 q 364 410 318 411 q 463 410 410 410 q 565 410 517 410 q 639 413 614 411 q 682 414 674 414 q 694 411 690 414 q 706 390 706 406 q 685 368 706 375 q 603 340 646 358 q 524 300 560 322 q 447 247 488 278 q 366 178 406 215 q 290 101 326 142 q 226 24 254 61 q 136 -239 136 -100 q 151 -322 136 -293 q 200 -361 165 -350 q 257 -367 224 -368 q 328 -360 290 -367 q 407 -339 367 -353 q 485 -306 447 -325 q 702 -139 596 -249 q 903 126 808 -29 q 922 156 917 147 q 931 165 928 164 q 944 154 944 168 q 933 131 944 151 q 906 82 922 110 q 870 24 889 54 q 835 -29 851 -7 q 581 -308 710 -212 q 304 -422 451 -404 q 131 -386 186 -437 q 105 -351 115 -371 q 88 -304 94 -332 q 84 -249 83 -286 q 89 -185 85 -212 q 113 -92 97 -136 q 154 -4 129 -47 q 215 83 179 39 q 299 175 250 126 q 524 351 418 294 q 538 360 529 354 q 544 364 542 363 l 451 364 q 297 369 353 365 q 203 379 240 372 q 166 390 179 385 q 142 403 153 394 q 144 567 76 447 q 218 672 174 618 q 317 780 263 726 q 435 884 371 833 q 568 979 499 935 q 711 1063 636 1024 q 858 1131 786 1101 q 994 1180 929 1161 q 1107 1204 1058 1199 q 1232 1132 1213 1215 q 1235 1094 1235 1119 q 1232 1051 1235 1068 z "},"F":{"ha":539,"x_min":-104,"x_max":957,"o":"m 911 1261 q 924 1263 915 1263 q 951 1243 942 1261 q 956 1225 954 1236 q 954 1203 957 1214 q 920 1097 950 1161 q 847 971 890 1032 q 711 815 792 892 q 535 675 631 739 l 497 650 l 488 618 q 453 487 472 565 q 406 288 433 408 q 393 233 399 256 q 388 207 388 210 q 393 206 388 206 q 418 206 399 206 q 465 206 442 207 q 510 203 489 206 q 530 199 526 200 q 535 192 533 199 q 531 181 536 183 q 506 179 526 179 q 479 177 496 179 q 444 172 463 175 q 410 167 426 169 q 386 163 394 164 l 376 160 l 371 135 q 282 -188 328 -46 q 196 -412 236 -331 q 15 -600 113 -581 q -61 -583 -24 -608 q -75 -558 -81 -568 q -57 -554 -69 -547 q -46 -558 -54 -556 q 1 -541 -28 -561 q 57 -486 29 -521 q 104 -415 82 -456 q 149 -319 126 -374 q 195 -194 172 -264 q 244 -33 218 -124 q 260 22 251 -7 q 274 75 268 51 q 284 115 281 99 q 288 131 288 131 q 276 126 286 131 q 254 115 267 121 q 229 102 242 108 q 210 92 217 96 q 179 61 178 71 q 177 52 181 56 q 169 47 174 49 q 156 61 160 46 q 168 104 150 82 q 278 175 199 143 q 288 178 283 178 q 296 182 292 179 q 304 186 300 183 q 307 196 306 190 q 310 207 308 200 q 314 221 311 214 q 370 424 342 329 q 421 581 399 518 q 431 611 431 607 l 419 606 q 393 592 410 600 q 358 575 376 583 q 324 560 340 567 q 296 549 307 553 q 110 503 193 508 q -28 531 26 499 q -88 602 -72 556 q -89 697 -104 649 q -58 718 -76 732 q -51 706 -53 715 q -38 664 -49 689 q -17 624 -28 639 q 128 576 19 578 q 162 578 140 576 q 206 582 183 579 q 251 588 229 585 q 288 596 274 592 q 326 607 306 600 q 368 622 347 614 q 407 638 389 631 q 438 653 425 646 q 448 660 446 657 q 457 682 450 664 q 595 967 519 850 q 769 1171 671 1085 q 911 1261 864 1253 m 914 1238 q 852 1206 892 1233 q 771 1139 813 1179 q 633 967 692 1063 q 529 743 575 871 q 517 709 522 724 q 513 694 511 694 q 524 703 518 697 q 536 710 529 706 q 551 721 543 715 q 670 811 614 763 q 772 912 726 860 q 853 1019 818 964 q 911 1128 889 1074 q 931 1199 926 1168 q 928 1236 936 1229 q 914 1238 924 1239 z "},"G":{"ha":1106,"x_min":56,"x_max":1328,"o":"m 1214 1194 q 1241 1194 1229 1196 q 1264 1189 1253 1192 q 1325 1119 1313 1171 q 1328 1083 1328 1107 q 1325 1044 1328 1060 q 1270 900 1313 979 q 1165 741 1228 821 q 1026 586 1103 661 q 865 456 949 511 q 468 297 667 319 q 434 294 450 294 q 390 294 418 294 l 343 296 l 328 261 q 274 115 292 181 q 257 -4 257 50 q 283 -99 257 -68 q 331 -122 300 -115 q 368 -124 343 -125 q 410 -118 393 -122 q 546 -62 475 -103 q 690 42 617 -21 q 835 187 763 104 q 975 369 907 269 q 983 383 979 376 q 989 393 986 389 q 996 403 993 399 q 986 408 996 406 q 967 421 975 413 q 957 436 958 429 q 965 458 954 453 q 981 459 968 458 q 1011 460 994 460 q 1064 464 1047 461 q 1101 476 1081 467 q 1122 484 1115 483 q 1136 481 1128 485 q 1150 426 1163 468 q 1138 384 1146 414 q 1119 303 1131 354 q 1027 -19 1083 131 q 900 -286 971 -168 q 731 -508 824 -412 q 539 -656 639 -603 q 469 -688 504 -675 q 401 -708 433 -701 q 344 -715 378 -714 q 289 -711 311 -715 q 118 -606 185 -694 q 90 -558 107 -590 q 63 -500 74 -526 q 56 -477 56 -483 q 64 -468 57 -471 q 74 -469 71 -465 q 89 -489 78 -474 q 164 -569 119 -533 q 253 -619 208 -604 q 417 -617 326 -644 q 578 -529 496 -592 q 733 -376 660 -467 q 957 38 863 -217 q 975 88 967 63 q 992 143 983 113 q 1013 211 1001 174 q 1039 300 1024 249 q 1057 365 1050 336 q 1065 396 1064 393 l 1068 403 l 1056 401 q 1042 400 1049 400 q 1033 400 1036 400 l 1024 400 l 1008 375 q 877 178 939 264 q 758 26 815 92 q 644 -85 700 -39 q 532 -160 588 -131 q 356 -208 438 -208 q 317 -206 332 -208 q 285 -197 303 -204 q 201 -128 231 -178 q 171 -6 171 -79 q 192 136 171 57 q 253 301 213 215 q 256 306 254 304 q 258 311 257 308 q 260 317 260 314 q 247 324 260 318 q 234 331 243 326 q 218 340 225 336 q 132 468 150 386 q 130 488 131 475 q 129 517 129 500 q 134 572 131 546 q 149 626 138 597 q 164 661 156 643 q 176 683 172 679 q 190 683 183 690 q 194 675 194 681 q 186 654 193 669 q 160 575 168 619 q 154 517 154 549 q 160 467 154 486 q 253 354 178 392 q 267 347 260 350 q 272 344 271 346 q 278 354 274 344 q 290 376 283 364 q 534 722 389 558 q 858 1021 679 886 q 1060 1147 969 1103 q 1214 1194 1151 1192 m 1218 1161 q 938 1024 1115 1157 q 798 905 868 971 q 662 765 728 839 q 536 612 596 692 q 428 451 476 532 q 401 407 414 429 q 379 367 389 385 q 364 339 369 350 q 360 326 358 328 q 375 325 361 325 q 408 325 389 325 q 445 326 426 325 q 475 329 464 328 q 712 402 593 344 q 946 556 831 460 q 980 587 958 567 q 1024 630 1001 607 q 1067 674 1046 653 q 1099 708 1088 694 q 1212 863 1164 786 q 1279 1000 1260 939 q 1293 1048 1290 1031 q 1296 1088 1296 1065 q 1294 1110 1294 1104 q 1289 1125 1293 1117 q 1267 1151 1281 1143 q 1231 1161 1254 1160 l 1218 1161 z "},"H":{"ha":1092,"x_min":22,"x_max":1258,"o":"m 1244 1246 q 1258 1229 1258 1246 q 1257 1218 1258 1226 q 1253 1201 1256 1210 q 1234 1144 1247 1181 q 1193 1031 1221 1107 q 1136 875 1161 946 q 1090 738 1111 804 q 1047 606 1068 671 q 1006 465 1026 540 q 987 399 997 439 q 967 323 976 360 q 951 260 957 286 q 944 233 944 233 q 953 231 947 232 q 963 228 957 229 q 975 224 968 226 q 1010 210 992 218 q 1043 194 1028 203 q 1069 178 1058 186 q 1085 167 1081 171 q 1079 149 1092 156 q 1073 147 1076 146 q 1058 153 1069 147 q 1028 165 1043 160 q 994 174 1014 169 q 955 180 976 176 q 932 182 933 183 q 927 162 932 182 q 916 113 922 142 q 903 53 910 85 q 892 -1 896 22 q 868 -120 879 -62 q 848 -236 857 -178 q 830 -356 839 -294 q 813 -483 821 -417 q 805 -547 808 -524 q 799 -585 801 -571 q 795 -606 797 -599 q 790 -618 793 -612 q 763 -642 781 -637 q 733 -632 746 -647 q 722 -603 724 -622 q 725 -532 721 -585 l 729 -487 l 724 -468 q 685 -354 711 -415 q 631 -244 660 -293 q 512 -92 583 -169 q 360 49 440 -14 l 351 56 l 349 47 q 341 14 347 42 q 327 -48 335 -14 q 313 -114 319 -82 q 303 -160 306 -146 q 297 -195 300 -175 q 290 -229 293 -215 q 285 -260 288 -254 q 275 -265 282 -265 q 264 -243 264 -265 q 274 -142 264 -214 q 303 17 285 -71 q 312 58 308 40 q 315 78 315 75 q 294 95 315 82 q 246 121 272 108 l 219 133 l 172 125 q 128 119 143 121 q 94 118 114 118 q 67 119 72 118 q 51 124 61 119 q 40 129 44 126 q 32 133 35 132 q 32 154 22 143 q 42 162 33 157 q 61 172 50 167 q 83 183 72 178 q 103 190 94 188 q 145 203 119 196 q 201 216 171 210 q 265 228 232 222 q 328 238 297 233 q 343 240 336 239 q 351 242 350 240 q 356 256 353 243 q 364 285 360 268 q 419 489 390 389 q 478 678 449 589 q 538 841 508 767 q 593 968 567 915 q 615 1010 608 1000 q 628 1022 622 1021 q 642 1011 642 1022 q 628 975 642 1006 q 598 903 613 939 q 569 828 583 867 q 542 748 556 790 q 513 658 528 706 q 460 479 486 572 q 410 296 433 386 l 397 247 l 404 247 q 417 248 407 247 q 439 250 428 249 q 466 253 449 251 q 502 256 483 254 q 540 258 521 257 q 575 261 560 260 q 615 262 588 261 q 671 263 642 263 q 727 262 700 263 q 767 260 754 261 q 794 257 779 258 q 822 255 808 256 q 845 253 835 254 q 858 250 856 251 q 865 257 864 249 q 870 274 867 260 q 878 303 874 288 q 940 524 907 415 q 1008 735 972 633 q 1079 925 1043 836 q 1151 1088 1115 1014 q 1176 1136 1163 1111 q 1201 1183 1189 1161 q 1224 1222 1214 1206 q 1238 1242 1233 1238 q 1244 1246 1242 1246 m 771 188 q 411 163 586 183 l 375 157 l 367 121 q 360 95 363 106 q 358 83 358 85 q 364 78 360 82 q 374 71 368 75 q 438 17 404 47 q 504 -46 472 -12 q 565 -113 536 -79 q 617 -178 594 -147 q 651 -229 633 -201 q 683 -286 668 -257 q 710 -343 699 -315 q 731 -396 722 -371 q 738 -411 736 -411 q 739 -403 738 -408 q 740 -394 740 -399 q 742 -382 740 -389 q 760 -256 749 -328 q 786 -110 772 -185 q 815 38 800 -35 q 843 165 829 110 q 847 188 847 182 l 825 188 l 771 188 m 326 151 q 317 149 324 150 q 300 147 310 149 q 269 142 271 143 q 286 131 268 140 q 301 122 293 126 q 313 115 310 118 q 321 110 318 110 q 323 115 322 110 q 326 126 324 119 q 329 138 328 133 q 331 144 331 143 q 329 151 332 150 l 326 151 z "},"I":{"ha":863,"x_min":39,"x_max":1042,"o":"m 1042 1010 q 1041 997 1042 1007 q 1039 975 1040 986 q 983 670 1028 854 q 865 267 938 486 q 546 -462 696 -237 q 530 -486 539 -474 q 513 -510 521 -499 q 497 -528 504 -521 q 489 -536 490 -536 q 478 -537 483 -539 q 472 -529 474 -535 q 483 -503 471 -525 q 506 -464 494 -485 q 529 -413 517 -443 q 558 -341 542 -383 q 599 -236 575 -299 q 692 21 646 -108 q 780 272 739 150 q 856 506 821 394 q 915 711 890 618 q 963 899 944 818 q 987 1035 981 979 q 988 1126 993 1092 q 967 1176 983 1161 q 894 1188 943 1199 q 779 1136 846 1176 q 650 1040 717 1097 q 517 912 583 983 q 388 758 451 840 q 269 585 325 675 q 199 463 232 524 q 142 347 167 401 q 103 245 118 292 q 85 165 88 199 q 97 117 81 121 q 141 129 111 114 q 206 171 171 144 q 276 231 240 197 q 342 301 313 265 q 356 317 353 314 q 364 321 360 321 q 374 316 371 321 q 374 306 376 311 q 351 276 369 297 q 310 231 333 256 q 265 184 288 207 q 225 149 242 161 q 153 99 182 114 q 100 85 124 85 q 50 176 39 85 q 143 432 61 268 q 267 647 197 542 q 414 847 336 753 q 574 1019 492 942 q 735 1150 656 1097 q 954 1225 878 1243 q 1038 1115 1021 1211 q 1040 1094 1039 1108 q 1042 1063 1042 1079 q 1042 1031 1042 1046 q 1042 1010 1042 1017 z "},"J":{"ha":800,"x_min":28,"x_max":1288,"o":"m 1283 1117 q 1275 1113 1279 1113 q 1260 1119 1269 1111 q 1203 1143 1244 1133 q 1010 1150 1104 1167 q 988 1146 1000 1149 q 966 1141 976 1143 q 949 1137 956 1139 q 942 1135 942 1135 q 942 1117 939 1132 q 943 1086 943 1108 q 943 1038 943 1064 q 943 985 943 1011 q 942 944 943 958 q 895 606 929 772 q 809 288 861 439 q 688 4 757 136 q 536 -232 619 -128 q 459 -321 499 -281 q 381 -392 419 -361 q 308 -444 343 -424 q 244 -471 274 -464 q 115 -433 169 -487 q 33 -233 54 -369 q 29 -193 31 -218 q 28 -140 28 -168 q 28 -85 28 -111 q 32 -40 29 -58 q 88 188 47 76 q 189 388 128 299 q 385 526 286 529 q 401 524 397 525 q 407 519 404 524 q 410 506 414 513 q 393 497 406 500 q 286 390 354 493 q 176 181 219 290 q 119 -36 133 71 q 113 -140 113 -89 q 120 -236 113 -192 q 141 -315 128 -281 q 174 -371 154 -350 q 211 -389 192 -389 q 303 -344 244 -387 q 429 -226 363 -301 q 645 92 547 -97 q 808 501 743 281 q 841 625 825 558 q 871 759 857 692 q 895 892 885 826 q 911 1014 906 958 q 913 1046 913 1026 q 915 1083 914 1065 q 917 1115 917 1101 q 915 1128 917 1128 q 905 1124 914 1128 q 883 1117 896 1121 q 858 1108 871 1113 q 835 1099 844 1103 q 756 1061 792 1081 q 681 1017 721 1042 q 651 992 654 999 q 633 976 649 986 q 610 963 621 969 q 582 944 599 956 q 551 940 563 929 q 547 947 549 944 q 547 960 546 950 q 574 1021 550 986 q 636 1085 599 1056 q 740 1149 681 1119 q 862 1199 799 1178 q 986 1232 925 1221 q 1097 1240 1047 1243 q 1281 1143 1243 1233 q 1283 1117 1288 1122 z "},"K":{"ha":789,"x_min":19,"x_max":1011,"o":"m 1006 -235 q 962 -274 994 -258 q 881 -297 929 -290 q 851 -299 869 -299 q 811 -300 832 -300 q 769 -299 790 -300 q 733 -296 749 -297 q 608 -277 667 -289 q 494 -246 550 -265 q 337 -171 407 -215 q 196 -58 267 -126 l 171 -33 q 160 -24 165 -28 q 155 -51 158 -25 q 147 -115 151 -78 q 137 -194 142 -153 q 129 -264 132 -235 q 124 -322 126 -300 q 118 -355 121 -343 q 111 -372 115 -367 q 101 -379 107 -376 q 71 -376 83 -387 q 53 -336 58 -364 q 49 -278 49 -315 q 54 -190 50 -240 q 65 -83 58 -140 q 83 36 72 -25 q 88 62 86 51 q 88 72 89 72 q 78 75 88 75 q 50 78 65 75 q 32 85 35 82 q 51 107 19 100 q 67 113 58 110 q 83 118 76 115 l 99 126 l 104 150 q 149 353 124 250 q 206 559 175 457 q 269 758 236 661 q 339 940 303 856 q 348 961 344 951 q 350 972 351 971 q 364 1007 350 975 q 398 1082 378 1039 q 441 1172 418 1125 q 482 1251 464 1218 q 497 1274 492 1269 q 510 1276 503 1279 q 519 1257 521 1271 q 510 1231 518 1254 q 492 1179 503 1208 q 405 937 444 1051 q 333 716 365 822 q 272 508 300 610 q 222 303 244 406 q 204 223 211 258 q 197 186 197 188 q 205 188 199 185 q 219 199 211 192 q 463 437 338 285 q 707 792 588 589 q 803 972 768 894 q 843 1085 839 1049 q 856 1104 844 1104 q 865 1099 863 1104 q 868 1075 868 1094 q 851 951 869 1022 q 794 799 832 881 q 703 629 757 718 q 583 451 650 540 q 383 225 481 315 q 199 97 285 135 q 179 88 179 90 q 177 79 178 88 q 174 60 176 71 l 168 31 l 176 22 q 190 9 181 18 q 209 -9 199 0 q 231 -27 219 -18 q 249 -42 242 -36 q 376 -123 311 -92 q 526 -176 442 -154 q 829 -215 681 -215 q 870 -215 853 -215 q 902 -214 888 -215 q 930 -211 917 -212 q 958 -207 943 -210 q 977 -202 972 -204 q 985 -196 982 -200 q 1006 -194 997 -183 q 1010 -211 1011 -199 q 1006 -235 1010 -224 z "},"L":{"ha":714,"x_min":-97,"x_max":910,"o":"m 904 -218 q 868 -233 903 -222 q 833 -244 849 -240 q 798 -253 818 -249 q 749 -262 778 -257 q 672 -275 719 -267 q 544 -301 604 -287 q 422 -331 485 -314 q 285 -373 358 -349 q 118 -431 213 -397 q 65 -450 85 -443 q 31 -462 44 -457 q 8 -472 18 -468 q -14 -482 -1 -476 q -41 -495 -35 -493 q -54 -496 -47 -497 q -92 -449 -82 -494 q -96 -403 -94 -432 q -94 -356 -97 -375 q -86 -302 -92 -331 q -67 -228 -81 -274 q -33 -116 -54 -183 q 24 56 -11 -49 q 132 374 82 229 q 226 638 182 518 q 308 853 269 757 q 382 1029 347 950 q 390 1049 389 1044 q 388 1050 390 1053 q 374 1057 376 1047 q 390 1094 371 1064 q 446 1172 408 1124 q 471 1206 460 1190 q 485 1224 482 1221 q 501 1230 492 1232 q 511 1217 511 1228 q 501 1190 511 1210 q 448 1069 482 1153 q 372 875 414 986 q 281 632 329 764 q 186 367 233 500 q 150 263 169 321 q 109 143 131 206 q 67 19 88 81 q 28 -96 46 -43 q -1 -187 11 -149 q -18 -242 -14 -226 q -35 -307 -29 -278 q -44 -358 -42 -336 q -46 -379 -46 -367 q -46 -403 -46 -392 q -45 -424 -46 -415 q -43 -433 -44 -432 q -35 -431 -42 -435 q -17 -419 -28 -426 q 132 -341 47 -378 q 332 -268 217 -304 q 481 -227 406 -244 q 622 -199 557 -210 q 666 -192 647 -194 q 701 -188 685 -189 q 733 -187 717 -187 q 768 -186 749 -186 q 796 -186 785 -186 q 816 -187 807 -186 q 833 -189 825 -187 q 853 -192 842 -190 q 878 -196 867 -194 q 894 -199 890 -197 q 906 -206 903 -200 q 904 -218 910 -211 z "},"M":{"ha":1001,"x_min":-29,"x_max":1168,"o":"m 1165 796 q 1153 745 1163 778 q 1122 647 1143 713 q 1056 439 1085 532 q 1004 259 1028 346 q 961 85 981 172 q 921 -106 942 -3 q 901 -201 908 -164 q 887 -263 893 -239 q 875 -303 881 -287 q 863 -331 869 -318 q 847 -354 853 -350 q 835 -353 842 -358 q 831 -346 832 -350 q 826 -328 829 -342 q 824 -304 825 -318 q 824 -275 824 -290 q 824 -244 824 -260 q 825 -217 824 -229 q 836 -117 828 -174 q 857 3 844 -61 q 885 135 869 67 q 921 272 901 204 q 994 510 956 401 q 1081 726 1032 618 q 1113 806 1106 783 q 1115 840 1119 828 q 1103 849 1113 854 q 1067 815 1090 840 q 1015 751 1044 789 q 953 667 986 714 q 885 567 919 619 q 835 490 863 533 q 781 402 808 446 q 730 318 754 358 q 692 253 706 278 q 657 190 676 228 q 615 108 638 151 q 572 22 593 65 q 535 -56 551 -21 q 518 -92 526 -75 q 507 -112 510 -108 q 474 -136 496 -133 q 438 -123 451 -139 q 428 -85 424 -107 q 444 -31 429 -78 q 482 83 460 17 q 530 224 504 150 q 576 357 556 297 q 630 505 603 432 q 687 656 657 578 q 751 821 717 735 q 826 1007 785 907 q 847 1055 836 1029 q 866 1103 857 1081 q 881 1142 875 1125 q 889 1164 888 1158 l 894 1175 l 869 1150 q 772 1038 825 1104 q 663 890 719 972 q 549 715 607 808 q 435 521 490 621 q 376 410 408 472 q 309 280 343 349 q 241 140 275 211 q 175 1 207 68 q 116 -127 143 -67 q 71 -233 89 -187 q 46 -308 56 -274 q 33 -352 39 -339 q 19 -372 28 -365 q 0 -379 11 -379 q -17 -374 -10 -379 q -22 -367 -19 -371 q -25 -358 -24 -362 q -24 -301 -29 -344 q -9 -194 -19 -257 q 17 -52 1 -131 q 53 110 33 26 q 124 374 85 240 q 208 632 164 507 q 298 870 251 757 q 390 1075 344 983 q 445 1172 422 1138 q 478 1206 468 1206 q 488 1201 482 1206 q 493 1193 493 1196 q 490 1188 493 1192 q 485 1176 488 1183 q 455 1113 474 1156 q 414 1011 436 1069 q 367 883 392 953 q 317 739 342 814 q 185 306 242 513 q 88 -103 128 99 q 85 -115 86 -110 q 83 -125 85 -121 q 82 -133 82 -131 q 85 -126 82 -135 q 94 -107 89 -118 q 115 -63 100 -96 q 146 4 131 -31 q 276 278 215 156 q 393 507 336 401 q 506 706 450 613 q 625 893 563 800 q 724 1033 678 971 q 810 1142 769 1094 q 833 1165 819 1151 q 859 1192 846 1179 q 883 1216 872 1206 q 899 1231 894 1226 q 944 1235 925 1249 q 957 1181 961 1222 q 946 1124 954 1157 q 922 1043 938 1090 q 883 932 906 996 q 826 783 860 868 q 777 654 800 715 q 735 542 754 593 q 701 454 715 492 q 681 396 688 417 q 672 372 678 389 q 658 335 665 354 l 643 289 q 647 296 644 292 q 653 302 650 299 q 658 311 656 306 q 686 355 667 325 q 730 422 706 385 q 778 496 754 458 q 822 561 803 533 q 981 787 919 708 q 1078 889 1042 865 q 1118 901 1100 904 q 1149 880 1136 897 q 1167 839 1163 863 q 1168 819 1168 826 q 1165 796 1168 811 z "},"N":{"ha":729,"x_min":-69,"x_max":1001,"o":"m 989 1086 q 967 1001 983 1056 q 915 849 950 947 q 850 662 879 747 q 797 499 821 576 q 751 344 772 421 q 710 183 731 268 q 684 79 696 128 q 661 -20 672 31 q 638 -129 650 -71 q 613 -262 626 -187 q 597 -348 603 -315 q 585 -401 590 -381 q 576 -433 581 -421 q 568 -454 572 -444 q 542 -475 557 -475 q 521 -461 528 -475 q 514 -403 513 -446 q 526 -282 515 -361 q 559 -95 539 -196 q 604 112 579 6 q 658 325 629 218 q 719 532 688 432 q 765 674 743 608 q 810 798 788 739 q 858 913 833 857 q 910 1026 882 969 q 934 1078 925 1058 q 948 1112 943 1099 q 954 1133 953 1125 q 956 1149 956 1142 q 919 1150 956 1176 q 805 1031 879 1124 q 632 789 731 938 q 403 416 522 624 q 153 -47 283 208 q 102 -147 129 -93 q 51 -251 75 -201 q 8 -340 26 -301 q -14 -389 -10 -378 q -26 -417 -21 -411 q -40 -425 -31 -424 q -67 -412 -56 -428 q -69 -404 -69 -408 q -69 -389 -69 -400 q -59 -325 -68 -371 q -35 -219 -50 -279 q -2 -87 -21 -158 q 38 53 17 -17 q 104 271 68 158 q 180 494 140 383 q 260 710 219 606 q 339 906 300 815 q 351 934 349 928 q 350 940 353 940 q 340 951 340 940 q 350 973 340 956 q 372 1011 360 990 q 397 1049 385 1032 q 414 1069 410 1067 q 433 1064 426 1078 q 435 1058 435 1061 q 433 1048 435 1054 q 426 1031 431 1042 q 413 999 421 1019 q 356 857 388 939 q 290 682 324 775 q 222 493 256 589 q 161 310 189 397 q 130 210 146 261 q 99 109 114 158 q 71 13 85 60 q 47 -72 57 -33 q 26 -151 38 -108 q 7 -232 15 -194 q -7 -295 -1 -269 q -12 -322 -12 -321 q -6 -310 -12 -324 q 10 -278 1 -297 q 69 -154 35 -224 q 144 -8 104 -85 q 224 146 183 68 q 304 293 265 224 q 466 574 385 439 q 622 821 547 708 q 762 1017 697 933 q 872 1146 826 1101 q 965 1186 931 1204 q 989 1086 1001 1169 z "},"O":{"ha":625,"x_min":28,"x_max":750,"o":"m 749 840 q 728 670 742 753 q 692 492 715 588 q 634 286 667 388 q 563 92 601 185 q 483 -82 525 0 q 397 -231 442 -164 q 186 -408 281 -403 q 90 -367 128 -412 q 38 -231 53 -322 q 28 -97 28 -175 q 39 56 28 -19 q 65 201 49 131 q 102 329 82 271 q 145 432 122 388 q 193 500 168 476 q 229 525 211 519 q 260 521 247 531 q 273 503 271 514 q 264 490 275 492 q 256 492 257 490 q 251 492 253 494 q 244 479 249 490 q 230 445 239 469 q 210 391 221 421 q 190 330 200 361 q 172 274 179 299 q 118 -8 131 131 q 115 -50 117 -25 q 114 -101 114 -75 q 115 -149 114 -126 q 117 -183 115 -171 q 160 -315 128 -287 q 174 -324 168 -322 q 190 -321 179 -325 q 396 -86 265 -296 q 425 -36 408 -67 q 459 29 442 -6 q 493 98 476 64 q 522 158 510 132 q 642 490 594 324 q 707 806 689 656 q 710 851 710 831 q 711 914 711 871 q 710 960 711 942 q 708 994 710 979 q 704 1023 707 1010 q 697 1053 701 1036 q 675 1111 688 1088 q 643 1154 663 1135 q 559 1196 607 1190 q 458 1175 511 1201 q 416 1149 435 1164 q 376 1114 397 1135 q 213 833 289 1022 q 187 763 200 801 q 162 685 174 725 q 140 607 150 646 q 122 533 129 568 q 119 521 121 526 q 115 513 117 515 q 99 514 107 504 q 96 522 96 517 q 101 553 96 526 q 160 776 125 667 q 236 968 196 886 q 320 1106 276 1051 q 415 1194 364 1161 q 520 1233 467 1226 q 621 1217 574 1239 q 744 1011 719 1167 q 748 975 747 993 q 749 917 749 957 q 750 867 750 889 q 749 840 750 844 z "},"P":{"ha":772,"x_min":11,"x_max":1201,"o":"m 1042 1217 q 1077 1216 1060 1218 q 1106 1211 1094 1214 q 1197 1121 1178 1190 q 1199 1106 1199 1117 q 1201 1084 1200 1096 q 1201 1062 1201 1072 q 1201 1046 1201 1051 q 1194 1009 1199 1031 q 1182 969 1189 988 q 1047 713 1146 860 q 806 406 949 565 q 769 367 792 390 q 722 319 746 344 q 676 273 697 294 q 642 240 654 251 q 624 224 632 232 q 611 213 615 215 q 481 106 549 156 q 354 24 414 56 q 333 11 342 15 l 325 7 q 319 -11 324 6 q 310 -51 315 -28 q 287 -145 297 -101 q 268 -229 276 -189 q 253 -308 260 -269 q 242 -385 247 -346 q 236 -418 239 -404 q 232 -435 233 -432 q 208 -449 224 -451 q 186 -426 193 -446 q 195 -306 178 -401 q 253 -62 213 -211 q 260 -35 257 -47 q 263 -22 263 -24 q 258 -21 263 -19 q 176 -37 210 -36 q 111 -29 142 -39 q 94 -22 99 -25 q 90 -12 90 -19 q 108 0 90 -1 q 142 9 119 1 q 189 27 164 17 q 239 50 214 38 q 282 74 264 63 l 293 81 l 315 153 q 382 359 346 253 q 456 567 418 465 q 531 760 493 669 q 600 922 568 851 q 608 943 608 939 q 601 941 608 944 q 564 915 594 938 q 445 826 504 874 q 332 731 386 779 q 230 632 278 682 q 146 536 182 582 q 83 447 107 488 q 60 388 60 407 q 65 376 60 381 q 92 373 72 372 q 135 381 111 374 q 163 384 157 385 q 169 375 169 383 q 164 365 169 368 q 139 357 158 363 q 77 345 99 346 q 43 356 56 344 q 50 460 11 383 q 108 554 71 503 q 196 662 146 606 q 306 776 246 718 q 432 890 365 835 q 490 936 460 913 q 549 982 519 960 q 606 1023 579 1004 q 654 1056 633 1042 q 669 1067 665 1063 q 679 1081 672 1071 q 690 1094 686 1094 q 703 1092 700 1096 q 712 1092 706 1089 q 742 1108 718 1094 q 1019 1215 903 1200 q 1042 1217 1026 1217 m 1056 1135 q 882 1094 994 1138 q 828 1069 863 1086 q 758 1034 793 1053 q 694 999 722 1015 q 660 978 665 983 q 634 924 654 974 q 586 803 614 875 q 528 647 558 732 q 471 486 497 563 q 438 387 457 447 q 400 268 418 326 q 369 167 382 210 q 356 121 356 125 q 370 129 356 119 q 410 157 385 139 q 633 351 517 236 q 854 594 750 465 q 1035 853 967 733 q 1115 1051 1104 974 q 1117 1078 1118 1063 q 1114 1103 1117 1094 q 1056 1135 1104 1132 z "},"Q":{"ha":672,"x_min":-111,"x_max":867,"o":"m 582 1175 q 657 1157 624 1172 q 781 951 756 1110 q 783 933 782 942 q 784 914 783 925 q 785 887 785 903 q 785 846 785 871 q 784 796 785 817 q 783 757 783 775 q 780 719 782 739 q 774 671 778 700 q 745 513 763 594 q 705 347 728 431 q 653 181 682 264 q 594 24 625 99 q 531 -119 565 -49 q 465 -239 496 -189 q 453 -261 453 -258 q 474 -270 453 -264 q 527 -284 496 -276 q 595 -299 558 -292 q 661 -311 632 -307 q 760 -325 721 -321 q 828 -329 800 -329 q 861 -331 856 -329 q 867 -342 867 -332 q 861 -351 867 -347 q 846 -358 857 -354 q 819 -367 835 -362 q 785 -374 803 -371 q 753 -381 768 -378 q 717 -385 738 -383 q 673 -386 696 -386 q 627 -385 650 -386 q 586 -381 604 -383 q 501 -364 544 -374 q 419 -342 458 -354 l 400 -336 l 378 -364 q 331 -412 353 -393 q 283 -447 308 -432 q 205 -468 244 -471 q 138 -437 165 -465 q 93 -367 110 -410 q 67 -253 76 -325 q 65 -244 67 -246 q 60 -243 64 -243 q 50 -244 57 -243 q 36 -246 43 -244 q -26 -266 1 -253 q -71 -296 -54 -279 q -83 -312 -81 -306 q -86 -328 -86 -318 q -97 -346 -86 -346 q -111 -322 -110 -346 q -110 -308 -111 -312 q -106 -297 -110 -304 q -85 -272 -100 -286 q -53 -246 -69 -257 q -11 -226 -37 -237 q 40 -208 15 -215 l 63 -201 l 64 -143 q 77 12 67 -61 q 108 171 88 85 q 146 292 125 238 q 189 385 167 347 q 234 445 211 424 q 278 467 257 467 q 301 458 292 467 q 308 438 311 449 q 300 432 306 433 q 292 433 294 431 q 287 433 289 436 q 279 421 285 431 q 265 386 274 410 q 245 333 256 363 q 225 272 235 303 q 208 215 215 240 q 167 32 181 119 q 150 -146 153 -56 l 149 -189 l 163 -190 q 208 -196 188 -193 q 250 -203 229 -199 q 293 -213 271 -207 q 343 -228 315 -219 q 362 -233 354 -231 q 371 -236 369 -236 q 378 -228 372 -236 q 392 -207 383 -219 q 410 -180 400 -194 q 428 -151 419 -165 q 497 -28 460 -99 q 558 100 533 42 q 678 430 631 264 q 742 746 725 596 q 746 792 744 771 q 747 854 747 813 q 747 901 747 882 q 744 935 746 921 q 740 963 743 950 q 733 993 738 976 q 711 1052 724 1029 q 679 1094 699 1075 q 595 1137 643 1131 q 494 1117 547 1143 q 413 1054 451 1096 q 249 775 325 963 q 223 705 236 743 q 198 627 210 667 q 176 548 186 588 q 158 474 165 508 q 154 461 156 467 q 151 453 153 456 q 135 454 143 444 q 132 463 132 457 q 138 494 132 468 q 197 717 161 607 q 272 908 232 826 q 356 1047 313 992 q 451 1135 400 1101 q 582 1175 515 1178 m 156 -249 q 153 -255 153 -249 q 160 -287 154 -261 q 180 -353 167 -328 q 208 -383 193 -379 q 228 -380 215 -385 q 254 -365 240 -375 q 270 -353 260 -361 q 290 -335 281 -344 q 308 -317 300 -325 q 315 -308 315 -310 q 300 -300 315 -308 q 279 -292 293 -297 q 250 -282 265 -287 q 219 -270 235 -276 q 189 -259 203 -264 q 166 -251 175 -254 q 156 -249 157 -249 z "},"R":{"ha":1014,"x_min":81,"x_max":1294,"o":"m 1135 1208 q 1192 1198 1169 1207 q 1233 1169 1214 1189 q 1267 1111 1258 1144 q 1271 1064 1271 1096 q 1265 1011 1271 1032 q 1221 885 1253 954 q 1139 737 1189 815 q 1022 572 1089 658 q 875 397 956 486 q 838 359 861 382 q 791 311 815 336 q 745 265 767 286 q 711 232 724 243 q 693 215 701 224 q 681 204 685 207 q 551 98 618 147 q 424 15 483 49 q 403 3 411 7 l 394 -1 q 392 -7 394 -1 q 389 -19 390 -12 q 387 -30 388 -25 q 386 -35 386 -35 q 393 -40 386 -36 q 410 -49 400 -43 q 475 -85 438 -64 q 561 -136 513 -107 q 658 -194 617 -171 q 734 -235 700 -218 q 798 -262 768 -251 q 860 -281 828 -272 q 901 -290 882 -286 q 940 -295 921 -293 q 981 -298 960 -297 q 1028 -299 1001 -299 q 1066 -299 1049 -299 q 1099 -297 1083 -299 q 1131 -294 1114 -296 q 1167 -289 1147 -292 q 1228 -274 1207 -282 q 1265 -256 1250 -267 q 1286 -254 1278 -246 q 1282 -278 1294 -261 q 1089 -372 1224 -356 q 1064 -374 1079 -374 q 1031 -375 1049 -375 q 997 -374 1014 -375 q 969 -372 981 -374 q 660 -267 813 -356 q 630 -250 644 -258 q 597 -229 615 -242 q 554 -201 578 -217 q 499 -161 531 -185 q 403 -96 431 -114 q 375 -81 376 -78 q 372 -88 374 -81 q 367 -106 369 -96 q 348 -190 356 -151 q 333 -261 340 -228 q 321 -326 326 -294 q 311 -393 315 -358 q 306 -426 308 -412 q 301 -443 304 -440 q 278 -457 293 -460 q 256 -435 263 -454 q 307 -132 240 -392 q 319 -81 315 -99 q 325 -57 324 -64 q 326 -49 326 -50 q 324 -47 325 -49 q 317 -44 321 -46 q 310 -42 314 -43 q 298 -39 303 -39 q 278 -42 293 -39 q 258 -44 268 -43 q 244 -46 249 -46 q 213 -44 232 -47 q 181 -37 194 -42 q 161 -26 163 -32 q 157 -22 158 -24 q 154 -18 156 -19 q 152 -6 147 -12 q 168 7 157 1 q 194 13 178 10 q 225 13 211 15 l 243 11 l 267 22 q 315 46 289 33 q 351 65 340 58 l 363 72 l 385 144 q 451 351 415 244 q 525 559 488 457 q 600 753 563 661 q 669 914 638 844 q 679 935 679 933 q 672 933 679 938 q 633 907 665 929 q 515 818 574 865 q 401 722 456 771 q 299 624 347 674 q 215 528 251 574 q 153 439 176 479 q 129 379 129 399 q 135 368 129 372 q 161 365 142 364 q 204 372 181 365 q 233 376 226 378 q 239 367 239 375 q 233 357 239 360 q 208 349 228 354 q 147 337 168 338 q 113 347 125 336 q 119 453 81 375 q 178 547 140 496 q 265 654 215 599 q 375 768 315 710 q 501 882 435 826 q 559 928 529 904 q 619 974 589 953 q 676 1015 649 996 q 724 1047 703 1035 q 738 1058 735 1054 q 749 1072 742 1063 q 761 1088 754 1085 q 772 1083 769 1088 q 781 1084 775 1081 q 811 1100 788 1088 q 847 1120 828 1110 q 886 1140 867 1131 q 924 1157 906 1149 q 954 1169 942 1165 q 1042 1198 1003 1189 q 1115 1208 1081 1207 l 1135 1208 m 1125 1126 q 951 1086 1064 1129 q 897 1061 932 1078 q 827 1026 863 1044 q 763 991 792 1007 q 729 969 735 975 q 704 917 725 965 q 656 796 683 868 q 597 640 628 724 q 540 479 567 556 q 507 378 526 439 q 469 260 488 318 q 438 159 451 201 q 425 113 425 117 q 440 121 425 111 q 479 149 454 131 q 703 342 586 228 q 924 586 819 457 q 1105 846 1036 726 q 1185 1043 1174 965 q 1187 1071 1188 1056 q 1183 1096 1186 1086 q 1125 1126 1174 1124 z "},"S":{"ha":854,"x_min":83,"x_max":1439,"o":"m 1432 1003 q 1379 906 1422 963 q 1358 881 1372 896 q 1327 849 1343 865 q 1295 818 1311 833 q 1268 794 1279 803 q 1110 683 1193 732 q 932 597 1028 635 q 812 557 871 574 q 701 532 753 540 q 607 524 649 524 q 542 535 565 524 q 534 539 535 538 q 533 546 533 540 q 538 556 533 554 q 554 556 542 558 q 587 552 571 553 q 626 554 603 551 q 780 580 700 560 q 939 633 860 600 q 1092 708 1018 665 q 1228 803 1165 751 q 1254 826 1239 811 q 1284 855 1269 840 q 1312 884 1299 869 q 1332 907 1325 899 q 1357 944 1346 925 q 1375 978 1368 963 q 1381 994 1381 989 q 1382 1013 1382 1000 q 1381 1028 1382 1025 q 1378 1036 1381 1032 q 1303 1066 1361 1054 q 1171 1078 1244 1078 q 1078 1072 1118 1078 q 988 1054 1038 1067 q 773 976 886 1029 q 554 851 660 924 q 428 756 486 806 q 324 656 369 707 q 245 553 278 604 q 196 456 213 503 q 179 365 181 410 q 193 282 178 319 q 265 167 214 224 q 413 38 317 111 q 456 4 425 26 q 518 -40 486 -18 q 572 -81 550 -64 q 610 -110 594 -97 q 639 -132 626 -122 q 664 -153 651 -142 q 744 -318 771 -246 q 669 -385 728 -365 q 493 -401 610 -404 q 258 -372 356 -399 q 118 -296 160 -344 q 92 -254 101 -278 q 83 -207 83 -231 q 89 -190 83 -193 q 99 -188 93 -187 q 106 -194 104 -189 q 108 -201 107 -197 q 111 -208 110 -204 q 147 -242 118 -225 q 217 -273 175 -258 q 314 -299 260 -287 q 428 -317 368 -311 q 468 -319 443 -318 q 519 -319 493 -319 q 567 -318 544 -319 q 600 -315 590 -317 q 634 -308 619 -312 q 656 -299 649 -304 q 663 -286 663 -293 q 619 -228 661 -267 q 482 -121 576 -189 q 405 -64 438 -87 q 349 -22 372 -40 q 307 12 325 -3 q 272 42 289 26 q 138 199 181 122 q 94 360 94 276 q 106 448 94 404 q 140 540 117 492 q 226 673 172 607 q 349 801 279 739 q 506 922 419 864 q 689 1031 592 981 q 953 1135 828 1101 q 1189 1163 1078 1168 q 1357 1130 1293 1158 q 1433 1053 1421 1101 q 1432 1003 1439 1029 z "},"T":{"ha":492,"x_min":-4,"x_max":1521,"o":"m 1001 1129 q 1035 1129 1019 1129 q 1064 1128 1050 1129 q 1375 1057 1261 1115 q 1515 897 1489 999 q 1515 864 1521 869 q 1504 861 1510 858 q 1499 865 1501 861 q 1489 881 1496 868 q 1453 926 1476 906 q 1392 967 1431 947 q 1254 1017 1332 999 q 1076 1042 1176 1035 q 1027 1044 1058 1043 q 961 1044 996 1044 q 894 1042 926 1043 q 844 1039 863 1040 q 591 996 707 1026 q 368 914 475 965 q 304 881 338 899 q 239 842 271 863 q 179 802 207 822 q 131 764 151 782 q 81 713 94 733 q 67 674 67 693 q 85 640 67 654 q 132 618 104 625 q 151 613 147 615 q 156 606 156 611 q 111 599 156 588 q 56 628 79 607 q 67 788 -4 688 q 85 810 72 796 q 112 838 97 824 q 141 866 126 853 q 168 889 156 879 q 442 1038 286 981 q 786 1118 597 1096 q 890 1128 831 1125 q 1001 1129 949 1131 m 722 965 q 731 961 726 965 q 735 954 736 957 q 725 931 735 950 q 665 799 700 885 q 590 598 631 714 q 505 339 550 482 q 413 33 460 196 q 386 -60 400 -11 q 360 -153 372 -110 q 340 -230 349 -197 q 331 -272 332 -262 q 330 -281 329 -279 q 335 -282 331 -282 q 344 -287 340 -282 q 347 -294 347 -290 q 342 -308 346 -297 q 336 -324 339 -315 q 332 -339 333 -333 q 326 -360 328 -354 q 317 -372 324 -365 q 301 -385 308 -382 q 283 -389 294 -387 q 265 -385 272 -389 q 250 -371 258 -382 q 240 -351 243 -360 q 238 -328 238 -343 q 258 -216 238 -294 q 311 -32 278 -137 q 388 197 344 74 q 478 441 432 319 q 572 674 525 563 q 661 867 619 785 q 702 944 689 924 q 722 965 715 965 z "},"U":{"ha":799,"x_min":-14,"x_max":1121,"o":"m 1117 1203 q 1106 1174 1117 1201 q 1081 1111 1096 1147 q 868 531 958 803 q 726 40 778 258 q 694 -103 708 -35 q 670 -239 681 -172 q 653 -372 660 -306 q 640 -511 646 -439 q 635 -568 638 -546 q 631 -603 633 -590 q 627 -624 629 -617 q 622 -639 625 -632 q 589 -644 610 -665 q 568 -592 575 -631 q 561 -496 561 -554 q 569 -362 561 -437 q 590 -199 576 -286 q 644 63 611 -72 q 719 332 676 197 q 811 599 761 467 q 918 853 861 731 q 942 903 938 893 q 943 911 946 914 q 934 894 943 910 q 910 852 925 878 q 874 792 894 826 q 832 718 854 757 q 768 605 803 665 q 697 479 733 544 q 610 324 647 390 q 543 206 574 258 q 487 110 513 154 q 433 19 461 65 q 132 -335 250 -278 q 49 -340 86 -357 q -3 -271 13 -322 q -12 -225 -10 -247 q -12 -158 -14 -203 q -8 -81 -11 -117 q 3 -4 -4 -46 q 81 322 29 149 q 207 674 133 494 q 247 767 226 719 q 288 856 268 814 q 323 930 307 897 q 350 981 339 963 q 380 1020 365 1006 q 406 1035 394 1035 q 426 997 426 1035 q 424 972 426 985 q 413 938 421 958 q 393 888 406 918 q 361 811 381 857 q 276 615 310 697 q 221 471 243 533 q 114 115 151 274 q 72 -154 76 -43 q 74 -222 71 -192 q 85 -262 78 -253 q 97 -264 88 -267 q 147 -235 117 -258 q 214 -176 178 -212 q 246 -144 229 -161 q 271 -115 263 -126 q 371 19 317 -60 q 490 203 425 99 q 524 258 508 233 q 560 319 539 283 q 610 406 581 354 q 689 539 640 457 q 731 611 713 581 q 764 668 749 642 q 794 719 779 694 q 828 776 808 744 q 872 851 847 808 q 933 953 897 893 q 982 1035 954 989 q 1029 1114 1010 1082 q 1061 1167 1049 1147 q 1081 1199 1074 1188 q 1092 1216 1089 1211 q 1097 1222 1096 1221 q 1114 1221 1107 1228 q 1117 1203 1121 1214 z "},"V":{"ha":722,"x_min":28,"x_max":974,"o":"m 968 1068 q 942 947 961 1021 q 896 781 924 872 q 832 585 868 690 q 756 373 796 481 q 672 158 715 265 q 585 -44 628 51 q 424 -362 499 -237 q 278 -556 349 -487 q 133 -604 194 -636 q 119 -597 126 -601 q 110 -590 113 -593 q 28 -225 28 -515 q 64 222 28 -26 q 167 740 100 469 q 181 794 175 771 q 192 842 186 818 q 207 896 199 867 q 226 965 215 925 q 246 1032 238 1001 q 256 1068 254 1063 q 267 1112 263 1101 q 278 1129 271 1122 q 302 1139 288 1139 q 329 1128 317 1139 q 344 1090 344 1117 q 343 1075 344 1083 q 339 1052 342 1067 q 329 1015 336 1038 q 313 954 322 992 q 240 680 272 811 q 185 426 208 549 q 145 186 161 303 q 121 -44 129 69 q 113 -241 113 -149 q 119 -402 113 -333 q 140 -512 126 -471 q 174 -558 154 -554 q 229 -537 194 -562 q 303 -464 264 -512 q 391 -331 347 -408 q 483 -147 435 -254 q 583 103 531 -39 q 696 428 635 244 q 781 692 743 571 q 847 908 819 814 q 888 1064 874 1001 q 904 1154 903 1126 l 906 1171 l 893 1171 q 875 1183 875 1171 q 881 1194 875 1190 q 910 1208 894 1206 q 938 1206 926 1211 q 951 1194 943 1203 q 963 1178 958 1185 q 972 1132 969 1164 q 968 1068 974 1100 z "},"W":{"ha":1057,"x_min":25,"x_max":1289,"o":"m 1276 1046 q 1250 887 1271 979 q 1194 681 1229 794 q 1113 436 1160 568 q 1006 157 1065 304 q 944 10 976 85 q 880 -133 911 -64 q 819 -263 849 -203 q 767 -368 790 -324 q 488 -736 597 -682 q 426 -739 453 -754 q 390 -681 400 -724 q 404 -324 371 -582 q 465 40 428 -142 q 558 418 501 221 q 589 526 576 481 q 600 574 601 572 q 578 535 589 556 q 556 494 568 517 q 532 449 544 472 q 452 297 496 382 q 350 93 408 211 q 297 -12 319 32 q 259 -87 275 -57 q 233 -135 243 -117 q 217 -164 224 -154 q 146 -240 179 -224 q 130 -247 135 -246 q 114 -247 125 -247 q 29 -106 38 -247 q 34 33 25 -47 q 64 209 43 113 q 117 415 85 306 q 192 640 150 525 q 227 732 208 686 q 263 817 246 778 q 295 885 281 856 q 319 931 310 915 q 344 960 331 946 q 361 975 357 975 q 371 971 367 975 q 387 942 383 963 q 383 894 390 922 q 378 880 381 888 q 370 856 376 872 q 353 814 364 840 q 325 744 343 788 q 253 555 286 650 q 193 369 219 460 q 149 195 167 279 q 121 39 131 111 q 117 -3 118 19 q 114 -47 115 -25 q 113 -87 113 -68 q 115 -118 114 -106 q 119 -146 118 -135 q 124 -157 121 -157 q 128 -153 125 -157 q 135 -146 131 -150 q 208 -44 164 -115 q 324 158 251 26 q 341 191 329 169 q 367 240 353 213 q 399 299 382 268 q 432 361 415 331 q 524 534 489 469 q 579 633 558 599 q 610 680 600 668 q 629 694 621 692 q 643 695 635 697 q 657 688 651 693 q 665 672 663 682 q 663 637 667 661 q 647 570 658 613 q 618 460 636 528 q 578 306 596 379 q 544 164 560 233 q 516 25 529 94 q 490 -117 503 -44 q 463 -306 474 -217 q 446 -469 451 -396 q 441 -595 440 -543 q 449 -672 442 -647 q 453 -685 451 -685 q 468 -678 456 -687 q 496 -654 481 -669 q 695 -339 579 -571 q 954 254 811 -107 q 972 299 960 267 q 996 363 983 331 q 1123 738 1075 575 q 1188 1018 1171 900 q 1192 1053 1190 1038 q 1193 1097 1193 1069 q 1190 1157 1193 1144 q 1171 1167 1186 1169 q 1149 1160 1160 1165 q 1124 1147 1138 1156 q 1093 1146 1099 1131 q 1094 1157 1090 1151 q 1114 1178 1099 1163 q 1144 1205 1133 1197 q 1167 1218 1156 1213 q 1181 1224 1176 1224 q 1197 1225 1186 1225 q 1213 1224 1208 1225 q 1226 1219 1218 1224 q 1276 1046 1289 1188 z "},"X":{"ha":747,"x_min":-212,"x_max":1181,"o":"m 1175 1060 q 1164 1051 1174 1058 q 1142 1032 1154 1043 q 1096 996 1115 1013 q 1049 956 1076 979 q 928 839 994 906 q 792 694 863 772 q 647 529 721 615 q 503 356 574 443 q 479 326 488 336 q 467 309 471 315 q 462 300 463 303 q 461 294 461 297 q 462 281 461 292 q 465 258 463 271 q 485 119 472 194 q 514 -18 499 43 q 592 -258 546 -154 q 693 -429 638 -362 q 723 -458 713 -450 q 740 -465 733 -467 q 751 -468 746 -464 q 754 -484 758 -475 q 736 -500 750 -493 q 724 -503 729 -503 q 708 -504 719 -504 q 692 -501 699 -503 q 676 -496 686 -500 q 651 -481 661 -487 q 625 -458 640 -474 q 504 -270 558 -396 q 414 31 450 -144 q 406 69 410 47 q 397 114 401 92 q 390 155 393 136 q 386 183 388 174 q 383 199 386 196 q 380 197 383 200 q 369 183 376 193 q 348 156 361 174 q 315 111 335 139 q 169 -98 238 4 q 47 -292 101 -200 q -49 -462 -8 -383 q -110 -599 -89 -540 q -117 -617 -114 -610 q -119 -625 -119 -624 q -112 -622 -119 -629 q -90 -619 -101 -611 q -87 -630 -86 -624 q -99 -647 -89 -636 q -111 -662 -104 -653 q -124 -678 -118 -671 q -162 -706 -142 -706 q -187 -697 -175 -706 q -204 -674 -200 -687 q -201 -601 -212 -649 q -153 -474 -189 -551 q -63 -304 -117 -397 q 59 -106 -10 -211 q 206 108 128 0 q 240 155 219 128 q 281 209 260 182 q 320 260 301 236 q 350 299 339 285 l 369 324 l 368 340 q 361 425 364 386 q 357 501 358 464 q 354 578 356 539 q 353 667 353 618 q 356 850 351 776 q 368 983 360 924 q 381 1053 375 1025 q 401 1113 388 1081 q 409 1129 407 1125 q 415 1136 411 1133 q 433 1128 429 1142 q 436 1106 435 1122 q 439 1054 438 1089 q 440 965 440 1019 q 440 831 440 911 q 440 704 440 753 q 440 621 439 656 q 441 557 440 586 q 444 489 442 528 q 448 439 447 453 q 451 425 449 425 q 454 429 451 426 q 458 433 456 432 q 463 438 460 435 q 556 547 503 488 q 666 665 608 606 q 781 778 724 724 q 888 875 838 833 q 942 922 913 897 q 1001 969 972 946 q 1058 1011 1031 992 q 1108 1046 1086 1031 q 1140 1066 1128 1058 q 1158 1076 1151 1074 q 1167 1078 1164 1079 q 1174 1075 1171 1078 q 1175 1060 1181 1065 z "},"Y":{"ha":1017,"x_min":-86,"x_max":1210,"o":"m 1149 1147 q 1178 1138 1163 1147 q 1206 1081 1197 1121 q 1208 1059 1207 1074 q 1210 1028 1210 1044 q 1210 994 1210 1011 q 1208 967 1210 978 q 1149 658 1189 815 q 1051 345 1110 500 q 917 45 993 190 q 749 -226 842 -100 q 549 -454 657 -353 q 319 -622 442 -556 q 223 -660 267 -649 q 136 -672 179 -672 q 110 -672 122 -672 q 90 -671 97 -672 q -33 -591 11 -656 q -82 -421 -78 -526 q -53 -220 -86 -324 q 43 -25 -21 -117 q 68 9 53 -11 q 99 49 83 29 q 126 85 114 69 q 143 103 139 100 q 154 104 149 107 q 163 94 160 101 q 150 68 164 92 q 101 -19 125 29 q 59 -117 78 -67 q 27 -221 40 -168 q 7 -322 14 -274 q 3 -353 4 -335 q 3 -389 3 -371 q 3 -424 3 -407 q 6 -451 4 -442 q 67 -571 18 -539 q 178 -589 115 -599 q 309 -542 240 -579 q 450 -444 378 -504 q 589 -313 522 -385 q 715 -164 656 -242 q 817 -11 774 -86 q 943 241 888 110 q 1040 498 999 372 q 1109 737 1082 624 q 1149 935 1136 850 q 1160 1072 1161 1021 q 1146 1122 1160 1122 q 1042 1043 1110 1117 q 889 843 974 969 q 826 744 856 793 q 765 640 796 694 q 701 524 735 586 q 629 383 668 461 q 594 313 608 340 q 569 269 579 285 q 550 246 558 253 q 533 236 542 239 q 509 234 518 232 q 489 244 500 236 q 466 289 474 257 q 456 399 458 321 q 447 536 451 476 q 435 644 442 596 q 418 732 428 692 q 394 810 408 772 q 356 901 379 853 q 313 972 332 949 q 306 986 307 979 q 308 996 304 993 q 351 985 318 1003 q 374 972 367 978 q 396 951 381 967 q 428 914 415 932 q 456 868 440 896 q 515 678 494 789 q 539 397 535 567 l 539 383 q 592 463 567 422 q 647 556 618 503 q 857 882 768 756 q 1014 1078 946 1008 q 1085 1131 1050 1114 q 1149 1147 1121 1149 z "},"Z":{"ha":1267,"x_min":111,"x_max":1476,"o":"m 1472 -162 q 1463 -169 1469 -167 q 1436 -175 1457 -171 q 1344 -194 1417 -178 q 1158 -236 1272 -210 q 912 -295 1025 -267 q 693 -355 799 -324 q 485 -421 588 -386 q 272 -497 383 -456 q 220 -517 239 -510 q 191 -526 201 -524 q 175 -531 181 -529 q 161 -532 169 -532 q 145 -531 150 -532 q 135 -528 140 -531 q 118 -515 126 -524 q 113 -505 114 -508 q 113 -489 111 -501 q 114 -472 113 -479 q 126 -451 115 -464 q 158 -415 136 -437 q 221 -349 179 -392 q 297 -269 267 -301 q 351 -212 328 -237 q 396 -165 375 -187 q 443 -115 417 -143 q 508 -46 479 -78 q 569 21 538 -14 q 599 53 585 38 q 617 72 614 68 q 632 88 621 76 q 655 114 643 100 q 677 140 667 128 q 690 154 688 151 l 694 158 l 681 157 q 663 154 675 156 q 640 150 651 153 q 603 145 611 144 q 596 157 596 146 q 603 168 596 164 q 618 176 606 171 q 647 185 631 181 q 682 196 664 190 q 714 204 700 201 l 743 211 l 793 269 q 923 421 865 353 q 1040 563 981 489 q 1225 810 1160 710 q 1310 975 1290 911 q 1315 1014 1315 994 q 1311 1044 1315 1033 q 1263 1075 1300 1064 q 1242 1078 1256 1076 q 1213 1079 1229 1079 q 1181 1078 1197 1079 q 1154 1076 1165 1078 q 980 1037 1075 1065 q 783 965 885 1008 q 575 864 681 921 q 371 742 469 807 q 282 681 322 710 q 219 632 242 651 l 213 626 l 222 631 q 231 638 225 633 q 243 644 238 642 q 260 654 256 654 q 269 647 267 654 q 269 636 272 640 q 259 627 267 633 q 242 614 251 621 q 221 601 232 607 q 201 590 210 594 q 156 590 164 569 q 156 606 153 599 q 174 629 158 614 q 228 678 193 650 q 307 737 263 706 q 405 801 351 768 q 515 865 458 833 q 823 1015 671 953 q 1097 1104 975 1078 q 1135 1112 1119 1108 q 1165 1117 1151 1115 q 1192 1119 1178 1118 q 1224 1119 1206 1119 q 1262 1119 1251 1119 q 1283 1115 1272 1118 q 1360 935 1401 1082 q 1242 706 1335 844 q 976 357 1150 567 q 933 306 957 335 q 893 260 908 278 q 867 229 878 243 q 856 215 861 222 q 871 208 856 214 q 897 199 886 204 q 925 182 908 193 q 942 167 939 172 q 943 156 946 163 q 914 150 942 146 q 890 153 907 151 q 854 157 872 156 q 822 159 836 158 q 807 158 808 160 q 790 140 806 158 q 751 99 775 122 q 707 47 731 74 q 660 -4 683 21 q 617 -51 638 -29 q 582 -89 596 -74 q 554 -117 571 -100 q 525 -150 538 -135 q 462 -218 496 -182 q 404 -278 428 -254 q 381 -301 394 -287 q 358 -326 368 -315 q 334 -351 347 -337 q 310 -376 321 -365 q 294 -393 300 -386 q 292 -399 289 -400 q 431 -349 364 -372 q 560 -306 497 -326 q 685 -269 624 -286 q 811 -236 747 -251 q 1106 -174 969 -196 q 1357 -146 1242 -153 q 1419 -144 1397 -144 q 1452 -143 1442 -143 q 1465 -144 1463 -143 q 1469 -147 1467 -146 q 1472 -162 1476 -154 z "},"a":{"ha":497,"x_min":-57,"x_max":581,"o":"m 243 246 q 267 245 261 246 q 281 240 272 244 l 292 235 l 300 239 q 317 242 308 242 q 331 239 325 243 q 340 225 338 235 q 342 188 342 215 q 348 126 342 144 q 372 99 354 107 q 385 94 381 94 q 404 93 389 93 q 424 96 415 94 q 443 100 433 97 q 490 121 461 107 q 540 150 518 135 q 558 162 551 157 q 567 168 565 167 q 576 167 571 171 q 581 157 581 163 q 568 140 581 151 q 504 99 540 118 q 443 74 468 81 q 343 86 378 56 q 322 121 328 100 q 315 179 315 142 q 315 192 315 186 q 314 203 314 197 l 314 214 q 290 202 311 217 q 217 150 268 188 q 78 51 129 85 q 1 6 28 17 q -42 3 -29 -6 q -54 22 -51 10 q -53 46 -57 33 q -10 101 -43 67 q 65 167 22 135 q 193 238 132 217 q 216 245 208 244 q 243 246 224 246 m 251 215 q 245 213 249 214 q 235 210 242 213 q 190 190 215 203 q 139 159 165 176 q 87 121 113 142 q 40 79 61 100 l 18 57 l 40 68 q 109 109 72 85 q 208 178 146 133 q 249 208 240 200 q 251 215 258 217 z "},"b":{"ha":476,"x_min":-47,"x_max":563,"o":"m 351 1103 q 365 1090 361 1103 q 361 1061 368 1085 q 336 986 354 1038 q 247 713 288 847 q 167 422 207 578 q 143 325 156 379 q 120 223 131 271 q 103 141 110 175 q 97 104 96 107 q 100 106 97 103 q 106 117 103 110 q 269 278 186 253 q 299 282 282 282 q 326 278 315 282 q 393 147 389 253 l 394 115 l 414 124 q 449 140 431 132 q 486 153 468 147 q 519 164 504 160 q 540 169 533 168 q 556 167 553 169 q 556 153 563 160 q 547 147 554 150 q 528 140 539 143 q 472 119 506 133 q 414 93 438 104 q 397 84 401 88 q 390 78 392 81 q 390 68 390 75 q 386 53 389 61 q 363 -51 379 4 q 322 -164 346 -107 q 271 -276 299 -221 q 213 -375 243 -331 q 74 -511 143 -482 q 58 -517 64 -515 q 36 -518 51 -518 q 15 -517 21 -518 q 1 -512 8 -515 q -28 -487 -15 -504 q -44 -450 -40 -469 q -47 -416 -47 -437 q -44 -381 -47 -394 q 28 -224 -31 -314 q 174 -46 88 -133 q 351 93 261 42 l 364 100 l 365 117 q 364 169 368 140 q 351 215 360 197 q 294 254 333 256 q 211 210 256 253 q 148 131 181 181 q 92 28 115 81 q 83 8 86 15 q 78 -9 81 0 q 74 -32 76 -18 q 68 -69 72 -46 q 60 -119 64 -106 q 51 -137 57 -132 q 36 -143 44 -144 q 22 -132 28 -142 q 19 -120 19 -128 q 19 -89 19 -112 q 25 -4 19 -53 q 44 118 31 44 q 78 279 58 192 q 122 458 99 367 q 172 638 146 549 q 224 808 199 728 q 274 952 250 888 q 318 1057 299 1017 q 338 1093 331 1083 q 351 1103 344 1103 m 357 64 q 347 58 354 63 q 328 46 339 53 q 308 31 318 39 q 289 18 297 24 q 215 -45 253 -10 q 141 -122 176 -81 q 75 -205 106 -162 q 22 -287 44 -247 q -18 -393 -10 -346 q -7 -468 -26 -440 q 76 -478 21 -508 q 190 -358 131 -449 q 242 -269 217 -317 q 290 -169 268 -221 q 328 -65 311 -118 q 354 36 344 -12 q 359 57 358 51 q 360 64 360 63 l 357 64 z "},"c":{"ha":397,"x_min":28,"x_max":486,"o":"m 467 143 q 375 69 428 106 q 272 7 322 32 q 160 -31 210 -24 q 78 -22 110 -39 q 57 -6 68 -17 q 40 17 46 6 q 29 79 28 42 q 33 112 31 99 q 43 146 36 125 q 89 220 60 186 q 153 272 118 254 q 224 280 193 292 q 256 232 256 268 q 247 215 256 217 q 233 224 236 215 q 230 230 231 229 q 222 231 229 231 q 200 221 214 228 q 162 194 181 211 q 129 154 143 176 q 107 108 115 132 q 99 63 99 85 q 103 38 99 44 q 118 24 107 31 q 131 19 125 21 q 156 18 136 18 q 199 22 182 18 q 322 71 257 36 q 443 154 386 106 q 465 171 458 168 q 478 169 472 174 q 467 143 486 161 z "},"d":{"ha":701,"x_min":7,"x_max":851,"o":"m 832 1207 q 836 1206 835 1207 q 842 1164 851 1200 q 801 1056 831 1125 q 730 903 771 986 q 642 731 689 819 q 551 564 596 642 q 542 549 546 556 q 536 535 539 542 q 530 518 533 528 q 522 493 526 508 q 456 240 483 367 q 417 4 429 114 q 414 -35 415 -12 q 413 -79 413 -57 q 413 -121 413 -101 q 414 -150 413 -140 q 442 -206 422 -210 q 465 -196 451 -203 q 493 -178 478 -189 q 517 -157 501 -171 q 549 -126 532 -143 q 583 -91 567 -108 q 611 -60 600 -74 q 688 40 647 -15 q 760 150 728 96 q 774 174 768 164 q 783 183 781 183 q 792 183 786 186 q 797 171 800 181 q 775 128 794 161 q 655 -63 708 13 q 553 -186 601 -139 q 515 -220 531 -208 q 479 -242 499 -232 q 459 -250 464 -249 q 439 -251 454 -251 q 420 -251 425 -251 q 408 -246 415 -250 q 378 -203 386 -232 q 368 -114 368 -171 q 376 17 368 -57 q 402 180 385 92 q 444 363 419 268 q 450 386 447 376 q 453 399 453 396 q 445 388 454 401 q 422 356 436 375 q 366 275 393 311 q 314 209 339 239 q 264 155 289 179 q 213 110 239 131 q 166 74 190 90 q 119 46 142 58 q 77 26 96 33 q 46 19 58 19 q 18 29 29 19 q 7 63 7 40 q 23 113 7 85 q 65 169 39 140 q 125 223 90 197 q 197 268 160 249 q 293 294 250 294 q 310 293 306 294 q 324 288 315 292 q 339 283 338 282 q 351 298 340 285 q 374 330 361 311 q 400 369 386 349 q 424 406 414 390 q 457 458 444 439 q 476 490 469 476 q 489 517 483 504 q 501 553 494 531 q 547 678 525 621 q 594 799 568 736 q 647 913 619 856 q 701 1019 674 969 q 753 1110 728 1069 q 797 1178 778 1151 q 832 1207 821 1208 m 810 1151 q 806 1144 808 1150 q 799 1134 803 1140 q 789 1119 794 1128 q 760 1069 776 1099 q 726 1006 744 1040 q 691 935 708 972 q 660 865 674 899 q 636 810 649 842 q 613 752 624 779 q 594 706 601 725 q 588 685 588 686 q 608 719 589 683 q 651 806 626 756 q 702 907 676 856 q 743 990 728 958 q 763 1037 753 1013 q 783 1083 774 1061 q 800 1122 793 1104 q 811 1150 807 1140 q 810 1151 811 1151 m 278 211 q 272 210 275 211 q 266 207 269 208 q 260 204 263 206 q 147 135 201 178 q 128 119 139 128 q 108 101 118 110 q 91 84 99 92 q 82 74 83 76 q 82 72 81 71 q 93 75 83 72 q 149 103 118 85 q 206 142 179 121 q 225 158 213 147 q 249 181 238 169 q 269 202 261 193 q 278 211 278 211 z "},"e":{"ha":286,"x_min":28,"x_max":369,"o":"m 179 276 q 196 271 189 276 q 211 238 211 261 q 196 188 211 215 q 153 137 181 158 q 106 118 125 115 l 97 119 l 96 110 q 97 94 94 101 q 103 85 99 88 q 149 82 119 78 q 214 101 179 86 q 284 135 247 114 q 340 171 321 156 q 356 181 351 179 q 365 178 361 182 q 368 167 369 174 q 356 149 367 161 q 305 98 335 122 q 242 56 275 74 q 177 27 210 38 q 118 17 144 17 q 69 28 90 17 q 36 63 47 40 q 31 78 32 72 q 29 99 29 83 q 29 122 28 114 q 33 140 31 129 q 85 228 49 193 q 106 246 96 239 q 133 261 117 253 q 160 272 149 268 q 179 276 171 275 m 183 244 q 176 240 182 244 q 163 227 169 235 q 148 211 156 219 q 136 197 140 203 q 115 165 125 183 q 106 143 104 146 q 114 143 107 140 q 129 151 121 146 q 158 179 144 161 q 179 214 172 197 q 185 235 183 225 q 183 244 186 244 z "},"f":{"ha":213,"x_min":-83,"x_max":310,"o":"m 235 481 q 243 476 239 481 q 239 457 251 467 q 222 434 232 450 q 197 389 213 418 q 124 213 161 317 q 60 3 88 108 l 53 -25 l 58 -17 q 142 76 101 36 q 215 138 182 115 q 281 169 251 161 q 310 161 310 176 q 309 156 310 158 q 308 153 308 154 q 292 147 306 150 q 199 92 256 140 q 85 -26 142 44 q 67 -49 76 -37 q 51 -70 58 -60 q 40 -88 44 -81 q 35 -97 35 -96 q 43 -100 35 -100 q 63 -103 51 -100 q 86 -112 75 -107 q 117 -137 100 -119 q 144 -169 135 -154 q 185 -361 189 -243 q 164 -497 182 -432 q 108 -636 146 -561 q 45 -748 75 -703 q -4 -803 15 -793 q -22 -806 -11 -806 q -39 -803 -32 -806 q -75 -569 -83 -775 q -48 -305 -69 -443 q 7 -35 -26 -167 q 83 213 40 96 q 175 414 126 329 q 235 481 214 481 m 32 -124 q 27 -131 29 -124 q 21 -162 25 -139 q -2 -287 8 -222 q -19 -410 -12 -351 q -29 -517 -26 -464 q -33 -615 -32 -569 q -31 -694 -33 -660 q -22 -750 -28 -729 q -18 -761 -19 -761 q -6 -750 -15 -761 q 15 -722 3 -739 q 40 -684 26 -706 q 64 -642 53 -662 q 119 -515 99 -579 q 146 -393 140 -451 q 147 -370 146 -385 q 147 -340 147 -356 q 147 -310 147 -324 q 144 -289 146 -296 q 85 -151 129 -194 q 62 -133 74 -140 q 39 -125 50 -126 q 32 -124 36 -124 z "},"g":{"ha":722,"x_min":-42,"x_max":819,"o":"m 521 326 q 542 315 535 326 q 549 289 546 307 q 550 247 551 271 q 544 192 549 222 q 532 129 540 163 q 528 110 529 115 q 526 104 526 108 l 526 101 q 525 100 526 101 l 526 96 l 528 94 l 531 93 l 532 93 l 533 92 q 535 93 535 92 l 538 93 q 540 94 539 94 q 544 96 542 94 q 553 101 549 99 q 565 106 558 103 q 685 153 631 138 q 790 168 739 168 l 813 168 q 817 167 815 168 l 819 164 q 818 163 819 164 l 817 163 q 815 161 817 161 q 804 160 814 160 q 680 127 751 154 q 539 58 608 100 l 511 43 l 507 39 l 496 3 q 441 -133 472 -64 q 374 -267 410 -201 q 297 -393 338 -333 q 214 -503 256 -453 q 83 -612 143 -586 q -14 -608 25 -639 q -28 -594 -21 -604 q -37 -574 -35 -583 q -42 -540 -42 -562 q -36 -501 -42 -518 q 26 -374 -22 -447 q 106 -270 60 -324 q 205 -164 151 -217 q 317 -62 258 -111 q 436 29 375 -12 l 449 38 l 451 42 l 463 68 q 499 167 483 119 q 521 243 514 214 q 524 260 524 250 q 526 278 525 269 q 527 286 526 282 q 528 293 528 290 l 528 297 q 526 300 528 299 l 526 301 l 525 303 l 524 304 l 519 306 l 518 306 l 517 306 q 515 304 517 304 l 514 304 q 513 303 514 303 q 508 297 510 300 q 493 283 504 294 q 474 267 483 275 q 463 256 465 258 q 453 247 458 253 q 450 238 450 242 q 447 232 450 235 q 442 231 444 231 q 426 228 436 232 q 416 222 422 225 q 401 213 410 218 q 319 167 364 189 q 232 129 275 146 q 149 101 188 111 q 88 89 111 90 l 69 89 q 60 93 68 89 q 42 113 46 101 q 47 143 39 126 q 76 176 56 158 q 125 211 97 193 q 186 242 153 228 q 253 267 219 257 q 306 280 283 276 q 356 283 329 283 q 395 281 381 283 q 422 272 410 279 l 433 267 l 440 267 l 456 279 q 472 292 463 283 q 489 307 482 300 q 497 313 493 310 q 504 318 500 315 l 510 324 q 513 325 511 325 q 521 326 515 326 m 407 240 q 272 209 344 232 q 138 150 200 186 q 132 147 132 147 q 130 146 131 146 q 128 143 129 146 q 126 140 126 142 l 126 138 l 128 133 l 131 132 l 132 132 l 135 132 l 139 132 q 199 149 163 138 q 271 176 235 161 q 297 187 282 181 q 324 200 311 193 q 336 205 331 203 q 346 210 342 207 q 358 216 349 211 q 379 226 368 221 q 399 235 390 231 q 407 240 407 240 m 431 -10 q 418 -19 424 -14 q 408 -27 413 -24 q 400 -33 403 -31 q 386 -44 397 -36 q 238 -174 310 -104 q 114 -311 165 -244 q 58 -394 83 -351 q 21 -468 32 -436 q 10 -524 10 -497 q 13 -546 10 -539 q 16 -554 14 -550 q 24 -560 18 -558 q 35 -561 28 -561 q 46 -557 38 -560 q 60 -551 53 -554 q 74 -542 67 -547 q 195 -418 128 -506 q 328 -214 263 -331 q 349 -173 335 -201 q 379 -117 364 -144 l 406 -64 q 414 -47 410 -54 q 424 -27 417 -42 q 431 -10 432 -12 z "},"h":{"ha":549,"x_min":-1,"x_max":632,"o":"m 622 142 q 557 68 590 103 q 503 17 524 33 q 429 -4 451 -19 q 411 25 413 7 q 439 171 407 64 q 458 239 454 219 q 463 267 463 258 l 463 278 l 454 278 q 402 252 435 274 q 330 196 369 231 q 247 115 290 161 q 164 19 204 69 q 113 -47 138 -14 q 65 -118 89 -81 q 49 -146 53 -137 q 42 -164 44 -154 q 28 -196 35 -193 q 3 -179 10 -203 q 10 -99 -1 -164 q 50 86 22 -35 q 106 297 75 190 q 168 506 136 404 q 233 702 200 608 q 299 874 267 796 q 359 1011 331 953 q 411 1101 388 1069 q 425 1111 418 1111 q 438 1100 438 1111 q 393 981 438 1086 q 351 881 369 926 q 315 792 332 835 q 283 706 299 749 q 250 613 267 663 q 153 292 200 461 q 71 -33 106 122 q 65 -60 67 -49 q 63 -72 63 -71 q 69 -62 65 -68 q 76 -52 72 -58 q 86 -39 81 -46 q 163 59 121 10 q 247 151 204 108 q 329 228 289 194 q 401 282 369 263 q 488 288 469 322 q 492 252 494 276 q 478 175 489 228 q 460 92 467 122 q 453 50 454 61 l 451 35 l 458 38 q 478 51 464 40 q 512 78 493 63 q 552 112 531 93 q 594 150 574 131 q 617 168 611 165 q 629 164 624 171 q 631 155 632 158 q 622 142 631 151 z "},"i":{"ha":161,"x_min":28,"x_max":290,"o":"m 253 569 q 281 554 272 569 q 282 521 290 539 q 250 503 272 501 q 219 525 228 504 q 219 543 217 535 q 251 569 228 569 l 253 569 m 189 425 q 197 424 194 425 q 228 385 228 415 q 224 369 228 378 q 204 328 219 360 q 148 200 172 264 q 103 61 124 136 q 88 0 94 29 q 83 -31 81 -29 q 92 -24 83 -32 q 112 -3 100 -15 q 135 23 124 10 q 156 47 147 36 q 190 94 172 69 q 221 142 207 119 q 233 160 229 156 q 242 165 238 165 q 249 161 244 165 q 253 154 253 157 q 249 146 253 153 q 240 129 246 139 q 210 78 226 104 q 176 31 193 53 q 126 -28 153 0 q 89 -62 100 -56 q 63 -63 78 -68 q 40 -47 47 -58 q 30 -22 32 -36 q 28 28 28 -8 q 29 70 28 57 q 33 99 31 83 q 65 215 44 154 q 115 336 86 275 q 152 401 139 383 q 179 424 165 419 q 184 424 182 424 q 189 425 186 425 z "},"j":{"ha":213,"x_min":-556,"x_max":296,"o":"m 194 554 q 226 535 215 554 q 226 504 233 519 q 206 486 219 490 q 178 489 192 482 q 160 522 158 500 q 183 551 163 544 q 194 554 192 554 m 164 392 q 178 380 175 392 q 181 335 181 368 q 179 303 181 315 q 175 274 178 290 q 167 241 172 261 q 158 199 163 221 q 147 156 153 178 q 136 119 140 135 l 128 92 l 143 100 q 209 135 175 119 q 275 164 243 150 q 296 158 296 172 q 275 133 296 144 q 209 102 243 118 q 143 68 175 86 q 120 53 125 57 q 113 46 115 50 l 94 -8 q -11 -263 49 -140 q -142 -496 -71 -386 q -311 -711 -225 -626 q -510 -806 -431 -832 q -532 -791 -521 -803 q -549 -767 -543 -779 q -555 -716 -556 -749 q -546 -651 -554 -683 q -453 -444 -521 -554 q -283 -231 -385 -335 q -149 -102 -217 -160 q -3 11 -82 -44 l 18 25 l 32 68 q 49 122 38 85 q 71 196 60 160 q 90 258 83 235 q 103 297 97 282 q 112 322 108 313 q 121 342 115 331 q 144 376 131 361 q 164 392 157 392 m 0 -24 q -11 -31 0 -24 q -274 -261 -162 -142 q -453 -503 -386 -381 q -510 -640 -492 -574 q -519 -742 -529 -707 q -508 -766 -515 -760 q -486 -772 -501 -772 q -433 -753 -464 -772 q -369 -699 -403 -735 q -297 -615 -335 -664 q -222 -504 -260 -565 q -111 -299 -164 -411 q -14 -64 -58 -187 q 0 -24 0 -29 z "},"k":{"ha":378,"x_min":-14,"x_max":463,"o":"m 442 122 q 401 66 417 86 q 365 26 385 46 q 299 -24 329 -10 q 232 -37 268 -39 q 157 -18 194 -37 q 125 2 142 -11 q 100 26 108 15 q 88 38 88 40 q 85 25 88 36 q 79 -1 82 14 q 55 -128 67 -64 q 34 -248 43 -192 q 19 -349 25 -304 q 11 -421 13 -394 q 10 -440 11 -432 q 8 -449 10 -447 q -1 -451 6 -451 q -10 -447 -7 -450 q -13 -436 -12 -444 q -12 -396 -14 -428 q 5 -196 -12 -321 q 56 93 22 -71 q 70 158 60 115 q 92 248 81 200 q 115 341 103 296 q 133 413 126 386 q 241 758 186 601 q 350 1033 296 915 q 358 1051 356 1043 q 361 1060 361 1058 q 367 1071 361 1063 q 376 1085 369 1074 q 389 1111 382 1097 q 420 1165 411 1154 q 438 1171 429 1175 q 435 1142 447 1164 q 357 972 397 1072 q 277 752 317 872 q 199 496 238 632 q 126 217 160 360 q 117 172 121 190 q 113 153 113 154 q 119 160 113 153 q 135 177 126 167 q 155 199 144 188 q 172 219 165 211 q 208 265 188 236 q 246 318 229 293 q 278 359 267 347 q 306 374 290 371 q 319 368 313 375 q 326 322 335 353 q 310 280 322 304 q 280 228 299 256 q 238 173 261 201 q 189 119 215 144 q 149 83 163 93 q 118 67 136 74 l 106 63 l 114 54 q 149 26 126 39 q 194 8 172 13 q 211 5 203 6 q 231 6 219 4 q 274 15 256 7 q 325 49 293 24 q 350 70 335 56 q 381 100 365 85 q 411 130 397 115 q 432 151 425 144 q 444 165 440 163 q 454 164 449 167 q 460 153 463 161 q 442 122 457 144 z "},"l":{"ha":417,"x_min":28,"x_max":685,"o":"m 619 1126 q 635 1125 631 1126 q 647 1119 640 1124 q 671 1010 685 1096 q 647 919 664 972 q 607 806 631 865 q 556 685 583 746 q 500 574 528 625 q 242 292 388 364 q 188 269 214 276 q 144 265 161 263 l 135 267 l 128 229 q 114 156 119 189 q 105 91 108 122 q 101 28 101 60 q 100 -36 100 -3 q 144 -197 101 -189 q 183 -191 160 -200 q 231 -162 206 -182 q 273 -126 247 -151 q 317 -78 299 -100 q 390 19 349 -39 q 467 136 431 78 q 485 167 479 157 q 495 183 492 178 q 500 188 499 188 q 504 188 501 188 q 514 183 510 188 q 516 176 517 179 q 508 160 515 172 q 485 115 499 140 q 456 63 471 89 q 428 13 442 38 q 403 -28 414 -11 q 188 -242 292 -203 q 170 -247 176 -246 q 149 -247 164 -247 q 127 -247 133 -249 q 114 -243 121 -246 q 32 -87 50 -214 q 28 -47 29 -74 q 28 8 28 -21 q 28 65 28 38 q 32 110 29 93 q 92 394 50 254 q 201 675 135 535 q 285 826 240 756 q 376 954 331 897 q 468 1052 422 1011 q 557 1113 514 1093 q 619 1126 592 1128 m 617 1097 q 568 1082 599 1097 q 440 965 506 1050 q 311 750 374 879 q 230 565 265 657 q 163 367 194 472 q 149 320 156 344 q 143 293 143 296 q 156 292 143 290 q 185 297 169 293 q 314 372 249 315 q 435 514 379 428 q 472 575 456 546 q 510 649 488 604 q 557 750 535 699 q 597 851 579 801 q 626 942 614 900 q 644 1017 639 985 q 647 1056 647 1036 q 642 1083 646 1075 q 617 1097 635 1099 z "},"m":{"ha":747,"x_min":25,"x_max":840,"o":"m 819 135 q 758 47 792 90 q 701 -19 725 3 q 636 -59 667 -53 q 590 -42 606 -65 q 581 -19 583 -31 q 575 11 578 -8 q 574 38 574 21 q 574 75 574 56 q 575 115 574 94 q 578 150 576 135 q 581 172 579 161 q 582 188 582 183 l 583 196 l 561 174 q 538 149 553 164 q 513 122 524 135 q 474 85 490 99 q 443 65 458 72 q 372 69 399 44 q 353 106 358 83 q 349 181 349 128 q 349 211 349 197 q 347 228 349 225 l 346 235 l 340 229 q 270 158 314 211 q 168 21 226 104 q 145 -11 154 1 q 129 -33 136 -24 q 117 -49 122 -43 q 106 -62 111 -56 q 97 -75 101 -68 q 89 -86 92 -82 q 76 -101 81 -99 q 60 -106 69 -107 q 44 -101 51 -106 q 29 -31 25 -86 q 64 149 33 25 q 108 303 90 253 q 140 369 125 354 q 183 381 161 390 q 199 367 194 375 q 201 342 203 358 q 199 317 201 328 q 188 274 197 307 q 174 228 181 253 q 163 189 167 204 q 152 149 158 174 q 140 99 146 124 q 130 57 133 75 q 126 39 126 39 q 132 47 128 42 q 138 56 135 51 q 146 67 142 60 q 250 202 204 150 q 324 269 296 254 q 344 276 335 275 q 361 274 354 278 q 381 250 376 267 q 383 226 382 247 q 385 176 383 206 q 385 136 385 151 q 388 113 386 121 q 391 100 389 104 q 396 93 393 96 q 422 92 404 85 q 464 119 440 99 q 535 189 488 140 q 569 222 558 213 q 590 231 581 231 q 606 224 600 231 q 613 206 613 217 q 610 165 613 196 q 606 120 607 138 q 603 90 604 103 q 603 68 603 78 q 603 44 603 58 q 606 2 604 15 q 613 -21 608 -11 q 632 -31 618 -32 q 718 39 664 -26 q 737 64 725 49 q 761 96 749 79 q 784 128 774 113 q 801 151 794 143 q 812 165 808 163 q 818 169 815 168 q 819 135 840 171 z "},"n":{"ha":397,"x_min":28,"x_max":490,"o":"m 482 146 q 451 110 472 131 q 414 79 431 89 q 324 46 365 50 q 257 65 283 42 q 235 97 244 76 q 215 153 225 117 q 206 185 208 179 q 197 193 203 192 q 150 162 179 196 q 85 64 121 128 q 71 40 78 50 q 61 26 64 29 q 44 19 51 17 q 35 33 38 21 q 33 44 33 36 q 31 58 32 51 q 29 95 28 72 q 35 144 31 118 q 46 197 39 169 q 61 250 53 225 q 74 281 68 269 q 86 303 79 293 q 100 317 92 310 q 111 324 108 324 q 119 321 114 324 q 125 315 124 318 q 128 296 128 310 q 125 271 128 282 q 121 250 125 267 q 112 213 117 233 q 102 174 107 193 q 94 146 97 156 q 104 157 94 142 q 214 221 171 243 q 231 203 225 214 q 246 164 238 193 q 289 83 265 94 q 372 94 317 71 q 422 125 394 104 q 464 164 449 146 q 488 169 479 183 q 490 161 490 164 q 482 146 489 158 z "},"o":{"ha":276,"x_min":28,"x_max":364,"o":"m 176 357 q 211 349 199 357 q 242 310 233 338 q 247 247 251 283 q 239 206 244 228 q 226 164 233 183 l 218 143 l 226 143 q 247 145 235 143 q 274 151 260 147 q 303 158 289 154 q 328 167 318 163 q 348 174 344 174 q 354 171 351 175 q 353 153 364 164 q 297 130 336 142 q 218 115 257 118 l 203 114 l 197 103 q 160 48 182 76 q 119 4 138 19 q 39 -6 67 -37 q 28 38 28 7 q 35 93 28 60 q 53 150 42 126 l 57 161 l 51 174 q 46 188 49 181 q 43 201 43 194 q 47 247 39 224 q 69 292 54 271 q 106 331 85 314 q 153 354 128 347 q 176 357 167 357 m 172 329 q 136 317 154 328 q 103 290 118 306 q 79 253 89 274 q 69 215 69 233 q 70 205 69 210 q 71 197 71 200 q 73 193 72 193 q 78 200 74 193 q 119 231 97 231 q 136 219 136 231 q 125 207 136 207 q 104 179 117 207 q 99 166 99 168 q 101 161 99 164 q 130 149 108 154 q 169 143 151 144 l 183 143 l 189 157 q 205 194 197 172 q 215 231 213 215 q 219 268 219 249 q 217 299 219 288 q 181 329 208 328 l 172 329 m 89 135 q 86 127 89 135 q 81 109 83 119 q 76 88 78 99 q 72 68 74 76 q 70 53 71 61 q 69 39 69 46 q 72 24 69 26 q 82 26 74 22 q 119 56 97 35 q 158 103 142 78 l 167 115 l 153 117 q 138 119 146 118 q 124 122 131 121 q 110 127 117 125 q 100 131 103 129 q 89 135 92 135 z "},"p":{"ha":536,"x_min":-167,"x_max":625,"o":"m 178 386 q 180 385 179 386 q 182 385 181 385 q 190 376 188 382 q 192 354 192 369 q 190 334 192 343 q 184 309 189 325 q 170 265 179 293 q 144 192 161 238 q 101 65 118 117 q 83 11 83 13 q 89 19 85 11 q 100 38 93 26 q 213 197 154 129 q 333 306 272 265 q 369 326 349 317 q 403 339 389 336 q 431 342 414 342 q 456 340 447 343 q 485 314 475 333 q 457 160 508 265 q 452 151 454 156 q 449 144 450 147 q 446 139 446 140 q 454 140 446 138 q 474 144 463 142 q 529 158 497 151 q 586 168 561 165 q 608 171 604 171 q 615 168 613 171 q 615 151 625 158 q 608 149 613 150 q 600 147 604 147 q 533 132 576 143 q 451 110 489 121 l 424 101 l 413 83 q 325 -17 372 21 q 242 -54 278 -54 q 207 -45 222 -54 q 186 -21 192 -36 q 183 -5 183 -11 q 188 13 183 1 q 264 75 200 47 q 283 83 269 78 q 313 93 297 88 q 344 104 328 99 q 371 114 360 110 l 385 118 l 397 138 q 450 236 433 192 q 460 301 467 281 q 425 315 453 319 q 293 240 371 311 q 178 108 235 189 q 69 -78 122 28 q 50 -115 58 -99 q 34 -153 42 -132 q 17 -203 26 -174 q -5 -279 8 -232 q -37 -395 -18 -326 q -83 -564 -57 -464 q -97 -610 -90 -586 q -108 -654 -103 -633 q -119 -692 -114 -675 q -126 -718 -124 -708 q -135 -753 -132 -737 q -140 -774 -139 -769 q -146 -789 -140 -783 q -162 -789 -153 -796 q -166 -781 -165 -786 q -167 -747 -167 -775 q -159 -646 -167 -701 q -135 -511 -151 -590 q -92 -329 -118 -431 q -35 -125 -65 -228 q 28 74 -4 -22 q 90 243 61 171 q 126 326 113 300 q 156 369 140 351 q 178 386 171 386 m 349 75 q 347 74 347 75 q 343 74 346 74 q 262 38 293 56 q 228 6 231 19 q 228 -2 226 -1 q 240 -3 231 -3 q 328 50 275 -3 q 344 67 338 60 q 351 75 351 74 l 349 75 z "},"q":{"ha":643,"x_min":21,"x_max":726,"o":"m 714 136 q 563 -101 639 22 q 408 -357 488 -225 q 306 -528 343 -465 q 247 -626 268 -592 q 216 -675 226 -660 q 196 -703 206 -690 q 164 -735 176 -725 q 139 -744 151 -744 q 113 -725 122 -744 q 111 -560 93 -687 q 138 -417 119 -494 q 181 -259 156 -340 q 236 -95 206 -178 q 300 65 267 -12 q 321 110 307 82 q 350 169 335 138 q 381 232 365 201 q 408 285 397 263 q 424 318 426 319 q 401 301 422 318 q 353 263 381 285 q 294 215 325 239 q 247 179 263 192 q 97 85 149 106 q 32 92 46 64 q 42 151 21 113 q 108 235 63 189 q 174 291 140 268 q 238 326 208 314 q 292 338 268 339 q 326 322 315 338 q 332 303 333 314 q 299 283 329 278 q 287 284 292 285 q 272 281 282 283 q 218 256 249 274 q 157 214 188 238 q 128 188 143 203 q 99 159 113 174 q 76 132 86 144 q 64 111 67 119 q 64 106 63 106 q 76 108 65 106 q 171 158 110 117 q 342 288 232 200 q 392 327 369 310 q 421 349 414 344 q 457 357 446 365 q 463 347 461 353 q 460 331 464 342 q 446 299 456 319 q 418 244 436 279 q 387 183 403 215 q 364 136 371 151 q 241 -161 294 -6 q 156 -461 188 -317 q 131 -619 136 -551 q 136 -712 125 -686 q 143 -717 138 -718 q 181 -676 157 -707 q 201 -647 190 -662 q 228 -603 211 -632 q 274 -529 246 -575 q 347 -407 301 -483 q 483 -184 422 -283 q 600 3 543 -85 q 639 63 619 33 q 674 117 658 93 q 699 156 689 142 q 710 171 710 171 q 715 172 714 171 q 722 169 718 174 q 726 160 726 164 q 714 136 726 156 z "},"r":{"ha":296,"x_min":29,"x_max":389,"o":"m 376 151 q 346 130 361 136 q 310 122 331 124 q 278 124 290 121 q 251 138 267 128 q 200 250 200 172 q 197 272 200 272 q 185 256 196 274 q 160 208 175 238 q 127 144 144 179 q 96 75 110 108 q 82 40 89 56 q 72 19 75 24 q 52 1 65 3 q 32 15 39 0 q 29 41 29 22 q 32 85 29 60 q 39 138 35 110 q 50 190 43 165 q 60 223 57 214 q 69 238 63 232 q 96 239 83 250 q 103 224 103 232 q 99 192 104 215 q 88 146 93 168 q 83 121 83 124 q 92 135 83 118 q 114 176 101 153 q 156 259 138 226 q 186 303 175 292 q 203 313 194 313 q 215 307 211 313 q 223 290 221 300 q 228 256 225 281 q 238 202 231 221 q 261 167 244 183 q 307 149 281 149 q 358 167 336 149 q 382 171 374 179 q 376 151 389 164 z "},"s":{"ha":208,"x_min":-32,"x_max":292,"o":"m 257 381 q 289 360 282 379 q 290 347 292 353 q 278 331 288 342 q 264 319 268 319 q 253 326 256 319 q 257 340 251 332 q 244 340 263 347 q 217 322 232 333 q 185 294 201 310 q 154 261 169 278 q 129 228 139 244 q 114 201 121 217 q 106 176 107 186 q 110 146 103 161 q 144 101 117 131 l 156 89 l 176 108 q 231 151 204 133 q 274 174 258 169 q 286 171 282 175 q 291 165 290 167 q 289 158 292 163 q 283 153 288 157 q 272 147 279 150 q 259 140 267 144 q 246 131 251 135 q 231 118 240 126 q 212 101 222 110 q 193 85 201 93 q 181 74 185 78 l 175 67 l 185 47 q 201 -7 200 18 q 188 -60 201 -32 q 172 -87 181 -75 q 147 -114 163 -99 q 107 -149 128 -133 q 65 -176 86 -165 q 26 -191 44 -186 q -3 -193 8 -196 q -26 -151 -32 -185 q 16 -72 -19 -124 q 110 42 51 -21 l 131 64 l 110 86 q 76 129 85 113 q 67 169 67 146 q 147 310 67 226 q 190 349 169 333 q 226 372 210 364 q 250 381 240 381 l 257 381 m 150 42 q 137 29 149 42 q 110 -1 125 17 q 78 -40 94 -19 q 51 -74 61 -60 q 13 -134 26 -108 q 3 -164 -1 -160 q 15 -165 6 -167 q 38 -157 25 -162 q 64 -143 50 -151 q 90 -125 78 -135 q 119 -102 110 -111 q 142 -78 129 -93 q 165 14 179 -29 q 157 32 163 22 q 150 42 151 42 z "},"t":{"ha":351,"x_min":-417,"x_max":728,"o":"m 722 694 q 715 691 719 692 q 690 693 711 690 q 601 699 644 697 q 511 699 557 700 q 415 694 465 699 q 308 685 365 690 q 279 681 292 682 q 265 679 267 679 q 253 646 263 678 q 230 568 243 614 q 203 471 217 522 q 182 379 190 419 q 128 109 151 247 q 90 -149 104 -29 q 72 -360 75 -269 q 78 -490 68 -451 q 83 -504 81 -501 q 113 -486 90 -511 q 164 -421 136 -461 q 204 -356 185 -390 q 244 -278 224 -322 q 289 -174 265 -233 q 344 -32 313 -114 q 404 118 381 60 q 431 182 428 176 q 440 188 435 188 q 451 176 451 188 q 446 154 451 174 q 431 106 440 135 q 412 44 422 76 q 392 -18 401 11 q 265 -334 329 -206 q 139 -521 201 -462 q 83 -550 108 -550 q 35 -512 51 -550 q 11 -387 18 -475 q 9 -347 10 -374 q 8 -291 8 -321 q 9 -233 8 -261 q 11 -185 10 -204 q 28 2 17 -96 q 59 202 40 100 q 101 407 78 304 q 153 606 125 510 q 163 642 158 626 q 167 660 167 657 l 168 665 l 150 663 q -6 633 74 650 q -158 597 -86 615 q -290 558 -231 578 q -385 522 -350 539 q -410 515 -404 514 q -417 525 -417 515 q -411 535 -417 531 q -389 550 -406 540 q -306 586 -360 567 q -186 624 -253 606 q -43 658 -119 642 q 111 688 33 675 q 144 693 128 690 q 165 697 160 696 l 179 699 l 197 751 q 288 979 244 894 q 331 1054 313 1032 q 368 1076 350 1076 q 385 1068 378 1076 q 392 1056 392 1061 q 392 1051 392 1053 q 393 1046 393 1049 q 386 1009 394 1035 q 356 929 378 983 q 335 881 346 907 q 319 840 325 856 q 306 803 314 825 q 291 760 299 781 q 279 726 283 740 q 275 711 275 711 q 288 713 281 711 q 302 713 294 713 q 319 715 310 714 q 509 725 419 725 q 675 718 599 725 q 699 715 688 717 q 713 714 710 714 q 724 706 721 711 q 722 694 728 701 z "},"u":{"ha":435,"x_min":28,"x_max":528,"o":"m 490 129 q 350 36 397 36 q 300 72 318 36 q 285 123 292 92 q 276 186 279 154 l 275 207 l 269 201 q 248 177 267 199 q 204 128 229 156 q 147 63 168 86 q 115 29 126 40 q 95 16 103 18 q 78 14 88 14 q 53 19 63 14 q 36 38 44 24 q 30 51 31 46 q 28 74 29 56 q 29 99 28 89 q 35 131 31 110 q 68 239 47 193 q 113 300 89 285 q 147 304 135 314 q 157 272 158 293 q 140 199 156 251 q 124 140 132 168 q 117 108 117 113 q 126 113 117 106 q 152 134 136 121 q 187 164 168 147 q 224 197 206 181 q 267 238 257 231 q 288 243 278 246 q 297 231 294 240 q 303 193 300 222 q 315 109 306 143 q 339 65 325 75 q 390 78 353 56 q 479 153 426 100 q 509 179 503 175 q 521 178 515 183 q 522 165 528 172 q 490 129 517 157 z "},"v":{"ha":275,"x_min":28,"x_max":372,"o":"m 368 508 q 317 342 354 438 q 219 125 281 246 q 138 -22 172 31 q 82 -82 103 -75 q 46 -76 60 -90 q 29 -31 32 -62 q 30 13 28 -14 q 37 72 32 40 q 49 138 42 104 q 64 206 56 172 q 99 303 83 278 q 131 315 114 329 q 135 308 135 311 q 136 289 136 304 q 134 261 136 275 q 122 208 132 247 q 96 87 106 139 q 83 6 86 35 l 82 -15 l 88 -8 q 100 8 92 -4 q 118 34 108 19 q 137 63 128 49 q 153 89 146 78 q 219 213 188 149 q 275 339 250 278 q 317 453 300 400 q 339 547 333 507 q 342 575 342 568 q 339 585 342 582 q 339 604 329 594 q 351 606 342 607 q 365 593 361 601 q 370 581 369 586 q 371 556 371 575 q 372 530 372 540 q 368 508 371 519 z "},"w":{"ha":403,"x_min":14,"x_max":446,"o":"m 443 453 q 427 338 440 404 q 393 201 414 272 q 346 59 372 131 q 290 -71 319 -12 q 234 -160 258 -136 q 190 -171 210 -183 q 173 -141 178 -164 q 167 -61 168 -118 q 169 56 165 -8 q 181 169 174 121 q 169 151 181 172 q 139 93 158 129 q 106 28 119 53 q 84 -9 93 4 q 68 -26 75 -22 q 53 -32 61 -31 q 19 -14 31 -36 q 15 1 15 -4 q 15 21 14 6 q 28 90 17 49 q 56 169 40 132 q 81 215 67 196 q 103 235 96 235 q 116 222 111 235 q 118 192 121 208 q 111 153 117 178 q 100 111 106 129 q 107 120 97 104 q 132 167 117 136 q 190 268 183 260 q 210 276 199 278 q 225 264 221 275 q 226 258 226 261 q 226 249 226 256 q 224 228 225 242 q 218 188 222 214 q 209 120 213 150 q 203 63 206 90 q 201 10 201 36 q 200 -46 200 -17 q 201 -108 200 -83 q 206 -137 203 -133 q 213 -135 207 -140 q 226 -119 218 -131 q 242 -91 233 -107 q 261 -56 251 -75 q 302 40 282 -12 q 340 147 322 92 q 371 258 357 203 q 393 361 385 313 q 399 402 397 385 q 403 435 401 419 q 405 468 404 451 q 406 506 406 485 q 405 550 406 538 q 401 572 404 563 q 397 596 397 592 q 400 604 397 600 q 431 574 415 618 q 442 517 438 550 q 443 453 446 483 z "},"x":{"ha":350,"x_min":-69,"x_max":436,"o":"m 418 133 q 312 38 365 75 q 207 -10 258 1 q 93 54 131 -26 l 88 68 l 81 60 q 69 39 76 53 q 52 8 61 25 q 34 -26 43 -8 q 18 -58 25 -44 q -21 -140 -6 -106 q -43 -200 -36 -175 q -50 -219 -49 -218 q -65 -217 -60 -225 q -69 -211 -68 -214 q -67 -200 -69 -208 q -51 -145 -62 -178 q -22 -74 -39 -112 q 18 6 -4 -36 q 65 90 40 49 l 76 110 l 74 125 q 67 178 69 150 q 67 247 65 207 q 76 343 68 310 q 99 393 83 376 q 121 394 108 403 q 143 360 136 385 q 147 336 146 350 q 146 281 147 322 l 146 215 q 151 220 147 215 q 158 232 154 225 q 224 310 192 278 q 269 343 256 343 q 279 331 279 343 q 272 321 279 329 q 253 301 264 313 q 213 256 232 281 q 167 194 193 232 l 146 167 l 147 146 q 156 81 150 111 q 169 40 163 51 q 182 28 175 33 q 192 24 188 25 q 207 24 196 24 q 301 61 251 28 q 341 91 322 75 q 389 136 360 107 l 424 171 l 429 167 q 435 156 436 163 q 418 133 433 150 z "},"y":{"ha":561,"x_min":-42,"x_max":649,"o":"m 432 411 q 454 368 458 411 q 447 321 453 350 q 433 256 442 292 q 414 181 425 221 q 390 103 403 142 q 385 88 388 94 q 385 82 383 82 l 393 86 q 402 90 397 89 q 414 94 407 92 q 504 133 460 117 q 588 160 549 150 q 626 169 617 168 q 639 167 635 169 q 640 150 649 158 q 631 147 638 149 q 615 142 624 144 q 568 123 594 135 q 511 97 542 111 q 449 65 481 82 q 388 32 418 49 l 361 15 l 349 -17 q 302 -134 329 -72 q 249 -249 275 -196 q 137 -433 190 -364 q 43 -518 83 -503 q 17 -522 32 -522 q -6 -517 3 -521 q -40 -451 -39 -500 q 4 -286 -42 -387 q 136 -100 54 -183 q 223 -22 178 -57 q 319 44 268 13 l 336 54 l 356 107 q 387 198 372 154 q 411 278 401 242 q 426 340 421 314 q 429 378 431 367 l 429 386 l 407 364 q 389 345 397 354 q 369 322 381 336 q 340 285 357 307 q 296 228 322 263 q 253 172 271 194 q 224 133 236 150 q 201 105 211 117 q 181 81 192 93 q 44 14 81 -37 q 49 126 21 44 q 72 178 56 146 q 101 228 89 210 q 127 262 113 246 q 151 282 142 278 q 183 285 169 293 q 197 257 197 276 q 196 243 197 250 q 190 225 194 236 q 177 198 185 214 q 157 158 169 182 q 124 95 139 126 q 101 49 108 64 l 99 40 l 106 44 q 138 74 114 50 q 181 119 163 99 q 224 174 196 139 q 300 272 251 208 q 352 338 331 311 q 389 381 374 364 q 415 404 404 397 q 432 411 425 411 m 303 -25 q 297 -28 303 -25 q 268 -50 289 -33 q 229 -83 247 -67 q 99 -232 154 -150 q 24 -392 44 -314 q 15 -445 15 -422 q 22 -468 15 -468 q 54 -449 32 -468 q 96 -404 76 -429 q 185 -268 138 -353 q 278 -82 233 -183 q 290 -53 285 -67 q 299 -37 296 -40 q 303 -25 304 -25 z "},"z":{"ha":507,"x_min":51,"x_max":600,"o":"m 265 379 q 297 376 281 379 q 321 361 314 374 q 326 347 325 353 q 326 321 326 340 l 326 293 l 331 294 q 388 301 357 299 q 406 302 403 303 q 413 299 410 301 q 415 289 415 296 q 406 281 413 283 q 371 276 399 279 q 356 274 360 274 q 343 271 351 274 l 321 267 l 314 240 q 309 221 311 229 q 306 210 307 213 q 306 204 303 204 q 313 210 308 204 q 338 234 324 221 q 369 253 353 247 q 436 224 421 268 q 440 177 443 207 q 428 111 438 147 q 421 81 421 88 q 424 80 419 78 q 444 93 429 82 q 510 133 478 115 q 574 160 542 151 q 597 154 593 165 q 576 133 600 143 q 532 112 557 126 q 481 82 507 97 q 434 51 456 67 q 401 26 413 36 l 388 -10 q 330 -138 360 -79 q 268 -243 300 -197 q 193 -327 228 -306 q 139 -326 158 -349 q 130 -310 132 -318 q 129 -286 128 -301 q 171 -178 132 -242 q 276 -47 210 -115 q 322 -2 300 -22 q 364 33 344 18 l 376 44 l 386 72 q 410 165 406 135 q 400 207 414 194 q 394 211 397 210 q 382 211 392 213 q 344 200 363 208 q 296 161 325 192 q 276 141 282 146 q 267 136 269 136 q 253 144 261 136 q 244 158 244 153 q 247 172 244 161 q 254 196 250 183 q 267 240 264 229 q 269 254 269 251 q 233 244 269 256 q 221 240 226 242 q 214 239 215 239 q 206 243 210 239 q 203 250 203 247 q 256 276 203 263 q 275 283 274 282 q 278 292 276 285 q 281 308 279 299 q 282 326 282 317 q 281 339 282 335 q 275 353 278 350 q 264 356 272 356 q 226 339 249 356 q 178 297 203 322 q 132 241 154 272 q 97 181 110 210 q 83 135 86 157 q 86 101 81 113 q 99 94 89 94 q 108 94 106 96 q 113 90 110 93 q 112 76 118 82 q 92 71 106 71 q 57 106 63 71 q 74 190 51 142 q 103 244 85 217 q 144 297 122 272 q 189 342 165 322 q 233 371 213 361 q 249 378 244 378 q 265 379 254 379 m 354 -8 q 332 -29 347 -15 q 301 -60 317 -43 q 269 -92 285 -76 q 247 -117 254 -108 q 221 -154 236 -131 q 193 -202 206 -178 q 175 -247 181 -226 q 178 -275 169 -268 q 197 -269 183 -279 q 226 -239 210 -260 q 260 -188 242 -218 q 297 -121 279 -158 q 312 -90 303 -108 q 330 -53 321 -71 q 346 -22 339 -35 q 354 -8 353 -8 z "},"`":{"ha":343,"x_min":117,"x_max":219,"o":"m 122 699 q 120 727 117 714 q 133 740 124 740 q 185 699 158 740 q 195 683 190 692 q 203 669 200 675 q 207 656 204 665 q 213 636 210 646 q 217 617 215 626 q 219 607 219 608 q 215 600 219 604 q 207 596 210 596 q 188 610 204 596 q 161 635 172 624 q 138 667 149 649 q 122 699 126 685 z "},"]":{"ha":540,"x_min":-60,"x_max":628,"o":"m -50 -365 q -40 -362 -47 -362 q -6 -360 -33 -361 q 40 -358 11 -358 q 99 -358 69 -357 l 164 -360 l 172 -339 q 181 -315 176 -329 q 191 -278 185 -301 q 207 -221 197 -256 q 232 -132 217 -186 q 247 -81 240 -104 q 254 -53 253 -57 q 259 -37 256 -49 q 265 -12 263 -25 q 276 26 269 0 q 290 76 283 53 q 306 134 300 111 q 317 174 313 157 q 327 208 322 192 q 338 247 332 225 q 348 286 343 269 q 360 328 353 303 q 378 395 367 354 q 408 507 389 436 q 423 560 415 533 q 437 609 431 586 q 447 649 443 632 q 454 672 451 665 q 465 713 458 688 q 476 760 471 739 q 488 803 483 782 q 496 832 493 824 q 513 887 504 857 q 525 936 521 917 q 536 982 531 968 q 534 984 536 983 q 525 985 532 985 q 502 985 518 985 q 460 985 486 985 q 397 985 428 985 q 354 983 365 985 l 319 983 q 314 996 313 986 q 325 1008 315 1006 q 349 1011 329 1010 q 399 1013 369 1013 q 462 1014 428 1014 q 528 1014 496 1014 q 581 1012 563 1013 q 608 1010 599 1011 q 619 1006 617 1008 q 625 997 622 1003 q 627 989 628 992 q 624 975 626 986 q 601 901 610 933 q 582 828 593 868 q 567 772 575 801 q 554 725 558 742 q 524 615 543 683 q 476 432 506 547 q 454 351 465 394 q 428 254 443 307 q 417 213 422 235 q 407 178 411 190 q 390 113 400 151 q 368 35 379 75 q 346 -44 357 -6 q 326 -112 335 -83 q 307 -179 315 -149 q 296 -219 299 -210 q 282 -264 289 -240 q 268 -308 275 -287 q 255 -346 261 -329 q 246 -368 249 -362 q 238 -383 242 -378 q 224 -391 233 -389 q 197 -394 215 -393 q 146 -394 179 -394 q 78 -394 117 -394 q 14 -393 39 -393 q -40 -391 -31 -392 q -51 -386 -49 -390 q -50 -365 -60 -375 z "},"\\":{"ha":918,"x_min":32,"x_max":817,"o":"m 46 1069 q 44 1108 32 1096 q 78 1107 60 1124 q 123 1050 92 1094 q 195 942 154 1006 q 283 800 236 878 q 375 642 329 722 q 613 192 513 400 q 785 -201 714 -15 q 806 -251 800 -243 q 807 -274 817 -262 q 772 -262 794 -286 q 754 -236 764 -251 q 731 -197 744 -221 q 700 -138 718 -174 q 657 -51 682 -103 q 559 146 603 58 q 476 308 515 233 q 400 453 438 383 q 320 598 363 522 q 227 760 278 674 q 111 956 176 846 q 68 1029 88 996 q 46 1069 49 1063 z "},"}":{"ha":461,"x_min":-57,"x_max":515,"o":"m -49 -389 q -43 -385 -47 -385 q -22 -376 -37 -385 q 4 -360 -7 -368 q 63 -297 32 -339 q 122 -194 93 -256 q 143 -149 133 -171 q 163 -103 153 -128 q 181 -51 172 -79 q 201 13 190 -24 q 228 97 217 63 q 249 155 240 131 q 268 197 258 179 q 289 233 278 215 q 333 290 307 263 q 386 336 358 317 q 401 349 399 346 q 401 353 404 351 q 381 381 388 363 q 378 396 378 388 q 379 425 378 404 q 381 454 379 438 q 383 482 382 471 q 390 519 386 493 q 399 572 394 544 q 419 719 413 663 q 424 818 425 776 q 419 865 422 849 q 410 896 417 881 q 389 920 403 911 q 332 949 375 929 q 299 960 306 960 q 285 964 289 958 q 283 975 281 971 q 297 989 286 979 q 320 1005 310 1000 q 346 1013 331 1010 q 431 994 386 1018 q 500 890 485 963 q 493 694 515 817 q 478 626 486 663 q 456 536 471 590 q 428 433 436 463 q 422 393 421 404 l 424 385 l 446 383 q 467 381 463 382 q 474 376 471 381 q 477 356 482 367 q 449 325 472 344 q 387 264 411 293 q 346 199 363 235 q 333 170 339 185 q 320 136 326 156 q 306 91 314 117 q 289 31 299 65 q 223 -169 257 -90 q 146 -307 189 -249 q 113 -344 133 -324 q 78 -376 92 -365 q 16 -409 49 -400 q -35 -411 -17 -418 q -49 -389 -57 -403 z "},"'":{"ha":394,"x_min":208,"x_max":300,"o":"m 289 703 q 293 701 292 703 q 300 692 300 697 q 293 665 300 688 q 238 564 269 603 q 211 556 221 546 q 208 566 208 560 q 214 588 208 572 q 234 632 222 611 q 265 681 246 653 q 289 703 282 701 z "},"&":{"ha":775,"x_min":18,"x_max":668,"o":"m 528 1221 q 567 1204 550 1222 q 599 1075 599 1171 q 592 985 599 1029 q 571 881 586 940 q 547 797 561 840 q 514 702 533 754 q 468 588 494 650 q 408 449 442 525 q 377 378 394 418 q 347 310 360 338 l 318 244 l 325 228 q 384 108 347 164 q 457 29 421 51 q 481 17 468 22 q 501 11 494 11 q 513 4 510 11 q 510 -8 517 -3 q 485 -10 504 -14 q 444 4 465 -7 q 376 63 411 22 q 313 161 340 104 l 297 194 l 268 126 q 244 69 254 93 q 226 23 235 44 q 210 -20 218 1 q 190 -69 201 -42 q 153 -176 169 -125 q 124 -269 136 -228 q 104 -342 111 -311 q 97 -389 97 -374 l 97 -396 l 107 -396 q 140 -391 119 -396 q 186 -377 161 -386 q 237 -357 211 -368 q 286 -333 263 -346 q 550 -71 446 -244 q 619 88 596 7 q 636 233 643 169 q 524 297 624 365 q 503 285 506 286 q 497 286 500 283 q 490 301 486 290 q 510 319 493 306 q 539 342 526 333 q 615 352 582 367 q 661 286 647 338 q 665 261 664 278 q 667 226 667 244 q 667 188 668 207 q 664 156 665 169 q 592 -56 647 50 q 446 -260 536 -161 q 297 -387 376 -335 q 138 -460 217 -439 q 97 -465 118 -465 q 63 -461 75 -465 q 40 -446 50 -457 q 24 -421 29 -435 q 19 -405 21 -412 q 18 -376 18 -397 q 20 -346 19 -357 q 24 -321 21 -335 q 236 268 64 -129 l 258 319 l 253 347 q 245 642 226 486 q 325 954 264 799 q 340 991 331 971 q 360 1032 350 1011 q 381 1072 371 1053 q 397 1101 390 1090 q 451 1172 424 1143 q 499 1213 478 1201 q 528 1221 513 1221 m 526 1188 q 481 1158 510 1188 q 421 1080 450 1128 q 367 972 392 1032 q 322 844 342 913 q 290 707 303 776 q 276 589 281 651 q 275 478 272 526 q 276 450 275 465 q 279 421 278 435 q 282 396 281 407 q 285 382 283 385 q 290 393 285 379 q 301 419 293 400 q 319 458 310 438 q 409 661 372 575 q 469 810 446 747 q 522 960 501 890 q 547 1074 542 1029 q 549 1090 549 1082 q 550 1100 550 1097 q 551 1114 551 1104 q 551 1133 551 1124 q 549 1152 550 1143 q 546 1165 547 1161 q 526 1188 540 1188 z "},")":{"ha":501,"x_min":-133,"x_max":478,"o":"m -128 -417 q -115 -417 -124 -414 q -83 -417 -103 -422 q -7 -369 -47 -407 q 93 -253 33 -332 q 239 -15 179 -137 q 339 247 299 107 q 368 371 356 306 q 388 494 381 436 q 390 542 389 514 q 392 599 392 569 q 390 653 392 628 q 388 694 389 679 q 347 838 376 776 q 267 947 318 899 q 238 971 251 963 q 210 985 225 979 q 194 1006 186 993 q 206 1011 199 1011 q 238 1006 214 1011 q 316 978 285 994 q 376 931 347 961 q 404 898 393 914 q 428 858 415 882 q 474 689 461 792 q 476 653 475 676 q 478 603 478 629 q 477 551 478 576 q 475 511 476 526 q 422 224 461 364 q 318 -44 382 83 q 203 -227 267 -147 q 57 -372 139 -307 q -23 -426 11 -408 q -86 -444 -57 -443 q -110 -444 -101 -446 q -128 -436 -119 -443 q -133 -427 -133 -433 q -128 -417 -133 -421 z "},"$":{"ha":1150,"x_min":29,"x_max":1388,"o":"m 1383 971 q 1372 943 1381 960 q 1353 913 1364 926 q 1336 894 1347 906 q 1313 869 1325 882 q 1287 844 1300 856 q 1264 824 1274 832 q 1179 761 1225 792 q 1083 703 1133 731 q 983 652 1033 675 q 883 613 932 629 q 849 601 868 607 q 818 592 829 594 q 799 586 807 589 q 789 583 790 583 q 781 556 788 582 q 767 491 775 529 q 749 408 758 453 q 731 326 739 364 q 723 290 726 306 q 718 271 719 274 q 722 267 718 268 q 744 265 725 267 q 932 243 868 258 q 1024 199 996 228 q 1003 67 1076 140 q 942 19 978 42 q 864 -25 907 -4 q 772 -62 821 -46 q 672 -92 724 -79 q 653 -99 653 -94 q 651 -108 653 -100 q 649 -126 650 -115 q 642 -167 646 -137 q 632 -228 638 -196 q 618 -315 624 -279 q 607 -374 613 -350 q 597 -412 601 -397 q 589 -436 593 -426 q 561 -460 578 -460 q 538 -437 543 -460 q 564 -146 522 -393 q 566 -132 565 -139 q 568 -119 567 -125 q 569 -108 569 -114 q 564 -110 567 -110 l 551 -110 q 522 -112 542 -111 q 478 -112 501 -112 q 435 -112 456 -112 q 406 -110 415 -111 q 351 -103 378 -107 q 306 -93 325 -99 q 272 -82 279 -86 q 268 -69 265 -78 q 277 -62 271 -62 q 303 -64 283 -61 q 350 -69 328 -68 q 404 -68 372 -71 q 494 -60 446 -65 q 574 -47 543 -54 l 582 -46 l 596 29 q 610 95 603 61 q 621 146 617 129 q 628 189 629 189 q 608 190 626 189 q 564 192 590 190 q 310 213 408 199 q 150 253 213 226 q 35 354 57 289 q 30 392 29 369 q 35 433 31 415 q 143 596 58 508 q 372 775 235 689 q 679 933 508 861 q 715 947 694 939 q 757 964 736 956 q 797 978 778 972 q 826 989 815 985 q 841 994 838 992 q 846 999 844 996 q 851 1014 847 1001 q 860 1042 856 1026 q 897 1156 876 1094 q 937 1270 918 1217 q 971 1363 956 1324 q 992 1410 986 1401 q 1001 1415 994 1415 q 1010 1408 1007 1415 q 1012 1394 1013 1404 q 1003 1354 1011 1385 q 978 1265 996 1324 q 932 1107 961 1207 q 913 1043 921 1069 q 906 1015 906 1017 q 919 1018 907 1015 q 946 1026 931 1021 q 1243 1076 1126 1076 q 1278 1076 1267 1076 q 1304 1072 1290 1075 q 1381 1025 1363 1060 q 1386 999 1385 1014 q 1383 971 1388 985 m 1332 1004 q 1321 1013 1329 1011 q 1263 1024 1301 1022 q 1174 1021 1225 1026 q 1060 1001 1122 1015 q 929 967 997 988 q 903 959 914 963 q 890 954 892 956 q 884 944 888 954 q 869 892 881 935 q 844 799 857 846 q 822 716 832 753 q 807 656 813 679 q 801 633 801 633 q 812 636 803 633 q 833 644 821 639 q 859 653 846 649 q 883 663 872 658 q 1087 763 988 704 q 1254 883 1186 822 q 1319 956 1299 924 q 1332 1004 1340 989 m 938 158 q 893 169 918 165 q 832 178 868 174 q 790 181 813 179 q 749 184 768 183 q 717 185 729 185 q 703 185 704 185 q 697 157 701 182 q 679 63 692 132 q 672 17 675 39 q 667 -10 668 -4 q 665 -20 665 -17 q 665 -25 665 -24 q 674 -23 665 -25 q 696 -17 683 -21 q 722 -9 708 -14 q 749 0 736 -4 q 823 31 788 14 q 888 67 858 49 q 937 102 917 85 q 965 135 957 119 l 968 142 l 963 147 q 953 153 960 150 q 938 158 946 156 m 808 926 q 599 838 704 889 q 410 735 494 788 q 263 632 328 685 q 156 530 199 579 q 97 439 114 481 q 92 369 79 397 q 363 279 124 296 q 436 274 389 276 q 531 271 483 272 q 613 269 578 269 q 649 269 647 268 q 653 288 649 271 q 664 331 657 306 q 671 360 667 343 q 680 399 675 378 q 690 440 685 419 q 701 481 696 461 q 710 516 706 500 q 717 544 714 532 l 724 572 q 717 573 724 574 q 700 572 710 572 q 667 571 683 569 q 646 575 650 572 q 644 578 644 575 q 643 583 643 581 q 648 592 643 590 q 672 599 653 594 q 712 606 690 601 q 735 614 733 611 q 739 625 736 614 q 746 651 742 636 q 761 706 750 668 q 784 785 772 744 q 806 861 796 826 q 818 906 815 896 q 824 930 825 928 q 808 926 824 932 z "},">":{"ha":608,"x_min":90,"x_max":499,"o":"m 93 -8 q 106 8 97 0 q 131 27 114 15 q 178 55 149 39 q 253 96 207 71 q 291 116 268 104 q 333 139 314 128 q 376 162 353 150 q 411 181 399 174 q 433 192 424 188 q 442 197 442 196 q 428 207 442 197 q 391 232 414 217 q 341 265 368 247 q 288 301 314 283 q 239 332 261 318 q 206 354 217 346 q 176 375 182 369 q 178 388 171 381 q 185 392 182 392 q 198 385 186 392 q 227 370 210 379 q 265 351 244 361 q 301 331 285 340 q 360 297 331 315 q 421 257 389 279 q 456 234 439 244 q 478 221 472 224 q 499 194 499 210 q 492 175 499 185 q 469 149 486 165 q 426 114 453 133 q 367 74 400 94 q 299 33 335 54 q 226 -6 263 13 q 161 -33 186 -25 q 118 -42 136 -42 q 90 -22 90 -40 q 93 -8 90 -17 z "},"@":{"ha":1157,"x_min":85,"x_max":1229,"o":"m 1081 881 q 1106 878 1094 879 q 1128 876 1118 878 q 1225 788 1208 858 q 1229 748 1229 774 q 1226 703 1229 722 q 1190 581 1218 650 q 1122 440 1161 511 q 1035 303 1082 368 q 943 192 989 238 q 774 124 842 92 q 738 157 751 133 q 725 210 725 181 q 722 221 725 221 q 708 210 721 221 q 675 185 694 200 q 626 147 656 169 q 567 101 597 124 q 513 59 538 78 q 481 35 489 40 q 453 18 465 24 q 429 8 440 13 q 386 8 406 1 q 369 17 375 11 q 357 33 363 24 q 351 72 347 53 q 408 153 358 110 q 536 236 457 197 q 643 278 599 267 q 711 282 688 290 l 721 278 l 731 286 q 767 304 747 303 q 781 301 776 306 q 788 288 788 294 q 782 271 788 282 q 768 231 772 251 q 767 194 764 210 q 831 158 775 142 q 913 214 865 169 q 1008 326 960 258 q 1070 422 1042 372 q 1122 517 1099 471 q 1160 607 1144 564 q 1183 686 1176 650 q 1189 735 1189 711 q 1183 774 1189 758 q 1111 822 1169 818 q 1013 808 1074 825 q 881 760 953 792 q 732 685 810 729 q 582 589 654 640 q 319 340 418 471 q 192 68 221 210 q 185 6 186 42 q 188 -54 183 -31 q 239 -165 197 -119 q 467 -216 318 -250 q 818 -31 615 -182 q 958 84 892 24 q 1068 196 1024 144 q 1087 217 1081 211 q 1096 224 1093 224 q 1105 219 1100 224 q 1110 211 1110 215 q 1101 197 1110 210 q 1078 167 1092 185 q 1049 128 1065 149 q 1018 89 1032 107 q 819 -117 918 -33 q 613 -253 719 -201 q 374 -310 485 -314 q 310 -302 338 -308 q 254 -281 282 -296 q 124 -142 163 -236 q 106 74 85 -49 q 214 338 129 206 q 433 582 299 469 q 578 688 501 638 q 734 776 656 738 q 888 842 813 815 q 1026 876 963 868 q 1053 880 1039 879 q 1081 879 1067 881 l 1081 881 m 689 249 q 672 244 685 249 q 637 230 657 240 q 594 206 617 219 q 549 178 571 193 q 511 149 528 163 q 470 110 489 129 q 456 90 451 92 q 479 97 458 90 q 511 110 500 104 q 576 154 536 125 q 649 211 617 183 q 664 222 656 215 q 679 235 672 229 q 689 249 694 249 z "},";":{"ha":336,"x_min":146,"x_max":228,"o":"m 199 325 q 222 310 215 322 q 222 285 228 297 q 204 271 218 274 q 181 275 190 268 q 172 285 175 278 q 168 297 168 292 q 172 311 168 304 q 182 321 176 318 q 199 325 190 325 m 188 6 q 212 -7 203 7 q 213 -36 221 -21 q 189 -57 206 -47 q 160 -67 172 -67 q 149 -61 153 -67 q 149 -51 146 -57 q 161 -44 154 -46 q 174 -40 172 -42 q 172 -32 176 -37 q 167 -13 165 -24 q 179 3 169 -3 q 183 4 182 4 q 188 6 185 4 z "},"=":{"ha":578,"x_min":121,"x_max":482,"o":"m 453 225 q 478 214 472 224 q 482 200 482 208 q 478 186 482 192 q 464 176 471 179 q 435 174 457 174 q 396 173 424 174 q 340 171 368 172 q 206 169 247 167 q 158 179 165 171 q 160 192 156 186 q 186 200 163 194 q 238 208 210 206 q 268 212 246 210 q 319 216 290 214 q 378 220 347 218 q 436 224 410 222 q 453 225 443 225 m 393 99 q 414 96 408 99 q 429 78 425 89 q 426 58 433 67 q 415 50 424 53 q 375 43 408 46 q 301 39 342 40 q 222 38 260 38 q 169 42 185 39 q 140 48 147 46 q 131 56 133 50 q 143 72 121 67 q 310 93 253 88 q 393 99 368 99 z "},"[":{"ha":400,"x_min":24,"x_max":711,"o":"m 701 997 q 692 994 699 994 q 657 990 685 993 q 611 989 640 989 q 553 990 582 989 l 488 992 l 479 971 q 471 947 475 960 q 460 910 467 933 q 444 853 454 888 q 419 764 433 818 q 405 712 411 735 q 397 685 399 689 q 392 669 396 681 q 386 644 389 657 q 375 606 382 632 q 361 556 368 579 q 345 498 351 521 q 334 458 339 475 q 324 424 329 440 q 314 385 319 407 q 303 346 307 363 q 291 303 299 329 q 272 236 283 278 q 243 124 261 194 q 228 71 236 97 q 215 22 221 44 q 203 -17 208 0 q 197 -40 199 -33 q 187 -81 193 -56 q 174 -129 181 -107 q 163 -172 168 -150 q 156 -200 158 -193 q 139 -255 147 -225 q 126 -304 131 -285 q 115 -350 121 -336 q 117 -352 115 -351 q 126 -353 119 -353 q 149 -354 133 -354 q 192 -354 164 -354 q 255 -353 224 -353 q 297 -351 286 -353 q 319 -351 310 -351 q 332 -353 329 -351 q 338 -365 339 -356 q 326 -378 336 -374 q 302 -381 322 -379 q 253 -383 282 -382 q 190 -383 224 -383 q 124 -382 156 -383 q 71 -380 89 -381 q 44 -378 53 -379 q 32 -374 35 -376 q 26 -365 29 -371 q 24 -357 24 -360 q 28 -343 25 -354 q 49 -269 40 -303 q 69 -196 58 -236 q 84 -140 76 -169 q 97 -93 92 -110 q 126 17 108 -51 q 175 199 144 85 q 197 281 186 238 q 224 378 208 325 q 235 419 229 397 q 244 454 240 442 q 262 518 251 481 q 283 597 272 556 q 306 676 294 638 q 325 744 317 715 q 344 811 336 781 q 356 851 353 842 q 369 896 361 872 q 383 940 376 919 q 396 977 390 961 q 404 999 401 993 q 413 1014 410 1008 q 426 1022 417 1019 q 454 1025 436 1025 q 506 1025 472 1025 l 638 1025 q 691 1023 682 1024 q 703 1018 700 1022 q 701 997 711 1007 z "},":":{"ha":408,"x_min":186,"x_max":244,"o":"m 215 353 q 239 338 232 350 q 239 313 244 325 q 221 299 235 301 q 197 303 207 296 q 189 313 192 306 q 186 325 186 319 q 190 339 186 332 q 199 349 193 346 q 215 353 207 353 m 215 43 q 239 28 232 43 q 239 4 244 15 q 221 -10 235 -7 q 197 -7 207 -14 q 189 3 192 -4 q 186 17 186 10 q 190 29 186 22 q 199 39 193 36 q 215 43 204 43 z "},"+":{"ha":613,"x_min":169,"x_max":533,"o":"m 526 172 q 507 161 519 164 q 453 158 494 158 l 400 157 l 386 110 q 365 40 374 67 q 351 -4 357 13 q 342 -31 346 -21 q 333 -50 338 -42 q 292 -85 314 -85 q 269 -64 276 -85 q 268 -23 265 -49 q 282 51 271 3 q 289 80 285 64 q 297 110 293 96 q 305 137 301 125 q 310 151 308 149 q 302 155 311 154 q 261 154 293 156 q 233 154 243 154 q 216 155 222 154 q 205 156 210 156 q 194 160 200 157 q 169 175 169 165 q 285 204 169 199 q 314 206 301 206 q 328 208 326 207 q 329 213 328 210 q 332 219 331 215 q 345 259 336 235 q 365 308 354 283 q 385 356 375 333 q 403 389 396 378 q 460 443 433 443 q 478 429 474 443 q 479 415 479 422 q 476 392 479 407 q 464 351 472 376 q 442 283 456 325 l 417 211 l 457 210 q 491 208 482 208 q 508 204 500 207 q 528 189 524 197 q 526 172 533 181 z "},"{":{"ha":390,"x_min":131,"x_max":704,"o":"m 694 958 q 688 954 692 954 q 668 946 683 954 q 642 928 653 938 q 583 866 614 908 q 524 763 553 824 q 503 717 513 739 q 483 672 493 696 q 465 620 474 649 q 444 556 456 592 q 417 473 429 507 q 397 415 406 439 q 378 372 388 390 q 357 336 368 354 q 313 280 339 307 q 260 232 288 253 q 244 221 247 224 q 244 217 242 218 q 264 189 260 207 q 267 173 267 181 q 267 144 268 165 q 265 115 267 132 q 261 88 264 99 q 256 51 260 76 q 247 -3 251 25 q 226 -150 232 -93 q 222 -249 219 -207 q 226 -295 224 -279 q 236 -326 229 -311 q 244 -340 240 -335 q 257 -351 249 -346 q 278 -363 265 -357 q 314 -379 292 -369 q 347 -390 340 -390 q 361 -394 357 -390 q 363 -406 365 -401 q 349 -421 360 -410 q 326 -437 336 -432 q 300 -444 315 -442 q 215 -425 256 -449 q 146 -320 161 -393 q 153 -125 131 -247 q 167 -57 160 -93 q 190 33 175 -21 q 217 136 210 107 q 224 176 224 165 l 222 185 l 200 186 q 179 188 183 186 q 172 193 175 189 q 168 214 163 203 q 197 244 174 225 q 259 306 235 276 q 300 371 283 335 q 313 399 307 385 q 326 433 319 414 q 339 478 332 453 q 356 539 346 503 q 423 739 389 660 q 500 876 457 818 q 533 914 513 893 q 568 946 554 935 q 630 978 597 968 q 681 981 663 988 q 694 958 704 972 z "},"-":{"ha":588,"x_min":171,"x_max":468,"o":"m 460 151 q 451 147 456 147 q 419 144 446 146 q 375 142 404 143 q 319 139 346 142 q 215 136 247 136 q 176 142 182 136 q 176 158 171 150 q 239 170 182 165 q 392 178 296 175 q 441 178 428 179 q 460 171 454 176 q 460 151 468 163 z "},"#":{"ha":849,"x_min":146,"x_max":892,"o":"m 882 990 q 889 986 885 990 q 892 976 892 983 q 885 953 892 968 q 872 923 882 946 q 853 876 863 900 q 810 772 828 817 q 778 690 793 728 q 749 614 763 651 q 719 532 736 576 q 701 480 713 511 q 681 419 690 449 q 663 366 671 389 q 654 339 656 343 l 653 333 l 668 333 q 688 333 676 333 q 711 331 700 332 q 731 329 722 331 q 744 328 740 328 q 758 315 754 325 q 753 304 758 308 l 746 297 l 694 297 l 642 297 l 638 286 q 629 259 636 282 q 615 210 622 236 q 601 164 607 185 q 594 143 594 143 q 603 142 594 142 q 625 140 613 142 q 672 136 651 139 q 701 129 693 133 q 710 119 710 126 q 685 106 711 106 q 661 104 678 106 q 627 101 644 103 q 596 98 610 100 q 581 96 582 96 q 574 73 581 94 q 558 18 568 51 q 538 -57 549 -15 q 517 -137 526 -99 q 496 -222 507 -176 q 474 -316 485 -268 q 454 -409 464 -364 q 437 -490 444 -454 q 425 -549 429 -525 q 422 -576 421 -572 q 421 -587 422 -579 q 417 -604 419 -594 q 413 -619 415 -611 q 411 -626 411 -624 l 410 -628 q 404 -631 407 -631 q 380 -626 389 -639 q 374 -585 371 -612 q 400 -424 378 -531 q 456 -179 422 -318 q 472 -115 463 -151 q 492 -43 482 -79 q 510 25 501 -7 q 525 76 518 57 l 528 90 l 524 90 q 497 88 521 90 q 442 83 474 86 q 383 78 410 81 q 349 75 356 75 l 332 74 l 329 64 q 314 10 324 46 q 292 -72 304 -26 q 269 -167 281 -118 q 247 -261 257 -217 q 213 -405 224 -364 q 196 -451 201 -446 q 169 -449 185 -461 q 157 -322 146 -425 q 214 -42 168 -219 q 228 17 221 -10 q 238 51 235 44 l 242 65 l 236 65 q 224 65 235 65 q 197 63 213 64 q 171 61 182 61 q 157 61 160 61 q 150 76 147 67 q 158 83 153 82 q 171 87 161 85 q 192 92 181 89 q 217 97 204 94 q 238 101 229 100 l 253 104 l 256 115 q 267 156 258 126 q 289 224 276 185 q 298 252 294 240 q 300 264 301 264 q 290 264 300 265 q 265 260 281 263 q 233 256 251 257 q 204 254 215 254 l 176 253 l 174 258 q 183 279 164 272 q 223 288 192 282 q 290 299 254 293 l 314 303 l 335 363 q 393 521 364 446 q 449 658 422 596 q 501 768 476 721 q 546 843 526 815 q 578 874 568 874 q 586 869 582 874 q 591 864 590 867 q 592 851 592 861 q 589 826 592 840 q 578 785 586 811 q 554 716 569 758 q 514 608 539 674 q 435 392 461 465 q 411 317 408 318 q 424 318 417 317 q 437 319 429 318 q 453 321 444 319 q 493 324 472 322 q 533 328 514 326 q 565 330 551 329 q 586 331 579 331 q 601 333 601 331 q 608 349 603 335 q 619 383 613 364 q 679 557 647 471 q 742 719 711 643 q 801 856 772 794 q 850 953 829 917 q 869 982 861 974 q 882 990 876 990 m 582 296 q 576 295 579 296 q 567 294 572 294 q 519 291 547 293 q 463 286 490 289 q 417 281 436 283 q 396 278 397 278 q 390 260 396 278 q 376 219 383 243 q 361 171 369 196 q 349 129 353 146 l 346 118 l 354 119 q 379 123 360 121 q 422 128 399 125 q 469 133 446 131 q 506 136 492 135 q 532 138 521 138 q 543 140 543 139 q 549 160 544 150 q 555 179 551 168 q 563 204 558 190 q 576 252 569 231 q 586 279 583 274 q 589 292 589 289 q 582 296 589 296 z "},"/":{"ha":794,"x_min":74,"x_max":857,"o":"m 843 1075 q 821 1035 840 1068 q 778 961 801 1001 q 662 765 713 851 q 569 603 611 679 q 489 458 526 528 q 413 314 451 389 q 330 151 374 239 q 232 -46 286 64 q 189 -133 207 -97 q 158 -192 171 -168 q 135 -231 144 -215 q 117 -257 125 -246 q 82 -268 94 -281 q 82 -246 74 -257 q 91 -229 85 -243 q 104 -196 97 -215 q 276 198 175 -10 q 514 647 376 406 q 606 806 560 728 q 694 947 653 883 q 766 1056 735 1011 q 811 1113 797 1100 q 844 1114 829 1129 q 843 1075 857 1101 z "},"|":{"ha":393,"x_min":111,"x_max":492,"o":"m 490 954 q 484 923 488 938 q 475 890 481 908 q 463 848 469 872 q 444 789 456 824 q 395 633 417 701 q 353 494 374 564 q 310 342 333 424 q 257 144 288 260 q 229 43 242 88 q 205 -42 217 -1 q 180 -122 193 -82 q 150 -210 167 -162 q 132 -251 138 -244 q 117 -250 126 -258 l 111 -246 l 117 -218 q 124 -183 119 -207 q 132 -135 128 -158 q 144 -60 139 -93 q 156 3 150 -26 q 169 64 163 33 q 183 132 175 94 q 258 424 214 267 q 351 733 301 582 q 391 850 374 801 q 422 930 408 899 q 447 977 436 961 q 465 997 457 993 q 486 992 478 1006 q 490 974 489 988 q 490 954 492 961 z "},"<":{"ha":619,"x_min":171,"x_max":579,"o":"m 576 408 q 564 392 572 400 q 538 373 556 385 q 491 345 519 361 q 417 304 463 329 q 378 285 401 297 q 336 261 356 272 q 294 238 317 250 q 258 219 271 226 q 237 208 246 213 q 228 203 228 204 q 242 193 228 203 q 278 168 256 183 q 328 135 301 153 q 381 101 356 118 q 429 69 407 83 q 463 47 451 54 q 493 26 488 32 q 492 13 499 19 q 485 8 488 8 q 471 15 483 8 q 441 30 458 21 q 404 49 424 39 q 368 69 385 60 q 310 104 339 86 q 249 143 281 122 q 213 166 229 156 q 192 179 197 176 q 175 192 179 186 q 171 206 171 197 q 177 225 171 215 q 200 251 183 235 q 243 286 217 267 q 301 326 269 306 q 369 367 333 346 q 443 406 406 388 q 508 434 483 425 q 551 442 533 443 q 579 424 579 440 q 576 408 579 417 z "},"?":{"ha":901,"x_min":113,"x_max":865,"o":"m 763 1133 q 786 1131 775 1132 q 806 1126 797 1129 q 851 1089 838 1117 q 857 1021 865 1061 q 843 976 853 1000 q 817 921 833 953 q 775 848 800 889 q 714 751 750 807 q 603 567 650 653 q 522 400 556 482 q 465 235 488 318 q 428 63 442 153 q 419 10 422 29 q 413 -21 415 -10 q 408 -37 410 -32 q 401 -46 406 -42 q 387 -53 396 -51 q 371 -50 378 -54 q 350 -22 357 -44 q 347 -1 347 -17 q 346 33 346 14 q 347 71 346 51 q 350 103 347 90 q 571 685 393 392 q 617 757 592 718 q 681 853 642 796 q 731 929 711 900 q 763 977 751 958 q 781 1006 775 996 q 793 1026 788 1017 q 803 1051 800 1043 q 807 1065 806 1058 q 805 1081 807 1076 q 792 1092 803 1086 q 746 1099 775 1099 q 681 1091 717 1099 q 603 1070 644 1083 q 519 1038 561 1057 q 268 863 371 969 q 202 785 228 822 q 160 708 176 747 q 147 668 150 686 q 144 629 143 650 q 146 608 144 614 q 151 592 147 603 q 166 573 158 581 q 186 560 174 565 q 257 546 213 546 q 360 558 301 546 q 393 565 386 564 q 403 563 400 565 q 406 553 407 558 q 400 544 404 547 q 385 540 396 543 q 359 533 374 536 q 330 527 344 531 q 304 522 315 524 q 244 519 278 519 q 196 524 211 519 q 115 600 131 543 q 113 635 113 613 q 115 672 113 657 q 183 812 131 739 q 314 949 235 885 q 407 1013 357 983 q 509 1067 457 1043 q 613 1108 561 1092 q 711 1131 664 1124 q 737 1133 724 1132 q 763 1133 750 1133 m 371 -97 q 388 -100 382 -97 q 410 -126 406 -110 q 413 -137 413 -133 q 410 -150 413 -140 q 390 -179 404 -171 q 381 -184 385 -183 q 367 -185 376 -185 q 352 -184 356 -185 q 343 -179 349 -183 q 326 -143 325 -162 q 340 -110 328 -124 q 371 -97 353 -97 z "},"(":{"ha":457,"x_min":181,"x_max":799,"o":"m 786 1000 q 774 1000 782 997 q 740 1001 761 1006 q 664 953 704 990 q 565 836 624 915 q 419 599 479 721 q 319 338 360 476 q 290 213 303 279 q 271 89 278 147 q 267 42 268 69 q 267 -15 267 14 q 267 -70 267 -44 q 271 -111 268 -96 q 311 -254 282 -193 q 390 -364 340 -315 q 419 -387 407 -379 q 447 -401 432 -396 q 464 -422 472 -410 q 452 -428 460 -428 q 421 -422 444 -428 q 342 -394 374 -411 q 282 -347 310 -378 q 254 -315 265 -331 q 231 -275 243 -299 q 185 -106 197 -208 q 182 -69 183 -93 q 181 -19 181 -46 q 181 32 181 7 q 183 72 182 57 q 237 360 197 219 q 340 628 276 500 q 456 810 392 731 q 601 956 519 890 q 681 1009 647 992 q 744 1029 714 1026 q 786 1021 772 1029 q 786 1000 799 1010 z "},"\"":{"ha":419,"x_min":201,"x_max":358,"o":"m 282 703 q 286 701 285 703 q 293 692 293 697 q 286 665 293 688 q 231 564 263 603 q 204 556 214 546 q 201 566 201 560 q 207 588 201 572 q 227 632 215 611 q 258 681 239 653 q 282 703 275 701 m 338 692 q 346 686 340 692 q 343 636 358 674 q 303 567 324 589 q 271 556 283 544 q 267 574 267 561 q 271 600 267 586 q 288 636 275 613 q 311 672 301 660 q 338 692 325 692 z "},"!":{"ha":442,"x_min":88,"x_max":628,"o":"m 597 1178 q 610 1172 604 1178 q 619 1160 617 1167 q 619 1113 628 1143 q 605 1074 617 1101 q 575 1008 593 1046 q 551 954 564 986 q 523 886 538 922 q 493 811 508 850 q 464 736 478 772 q 431 649 447 693 q 396 547 415 604 q 351 411 376 489 q 289 222 325 333 q 254 123 268 158 q 228 60 240 88 q 194 10 210 24 q 167 7 178 -4 q 162 14 163 11 q 163 31 161 17 q 185 146 165 68 q 234 324 204 224 q 302 539 264 425 q 382 763 340 653 q 430 887 406 826 q 476 997 454 947 q 517 1084 499 1047 q 547 1139 535 1121 q 597 1178 571 1178 m 146 -81 q 181 -122 179 -85 q 176 -144 181 -135 q 168 -160 174 -154 q 142 -172 158 -171 q 114 -164 125 -174 q 106 -108 88 -142 q 113 -96 110 -100 q 122 -87 117 -92 q 139 -81 132 -81 l 146 -81 z "},"_":{"ha":606,"x_min":93,"x_max":494,"o":"m 490 11 q 481 6 485 6 q 442 6 478 6 q 361 7 407 6 q 270 9 315 8 q 206 11 225 10 q 147 15 169 13 q 113 19 125 17 q 97 26 100 22 q 94 35 93 29 q 117 42 97 46 q 154 41 124 42 q 226 40 185 40 q 311 41 267 40 q 390 43 356 42 q 442 44 422 43 q 472 44 461 44 q 485 41 482 43 q 492 36 489 39 q 494 23 494 31 q 490 11 494 15 z "},"~":{"ha":632,"x_min":169,"x_max":528,"o":"m 508 117 q 453 86 485 92 q 365 92 422 81 q 335 97 354 94 q 301 101 317 99 q 230 106 256 108 q 193 88 204 103 q 174 82 183 76 q 171 96 169 86 q 231 137 174 125 q 375 139 288 149 q 413 135 397 136 q 450 135 429 135 q 483 137 476 136 q 499 142 489 138 q 509 147 507 146 q 515 144 511 147 q 508 115 528 136 l 508 117 z "},",":{"ha":319,"x_min":140,"x_max":211,"o":"m 206 25 q 183 4 199 14 q 154 -6 167 -6 q 143 0 147 -6 q 143 10 140 4 q 156 17 146 14 q 168 22 167 19 q 165 29 169 24 q 161 48 158 38 q 174 64 164 58 q 190 65 182 68 q 203 56 197 63 q 210 42 208 50 q 206 25 211 33 z "},".":{"ha":321,"x_min":154,"x_max":213,"o":"m 207 36 q 189 22 203 25 q 165 25 175 18 q 157 35 160 28 q 154 49 154 42 q 158 61 154 54 q 167 71 161 68 q 190 74 178 78 q 207 60 201 71 q 207 36 213 47 z "},"*":{"ha":561,"x_min":189,"x_max":451,"o":"m 233 742 q 242 747 233 744 q 285 722 257 753 l 322 678 q 341 716 333 700 q 353 738 349 732 q 379 757 367 757 q 388 751 382 757 q 385 701 400 739 l 375 679 l 417 692 q 449 685 442 694 q 451 675 451 685 q 413 644 451 660 q 389 635 401 640 q 361 626 376 631 q 402 562 386 590 q 410 531 418 533 q 392 535 403 529 q 369 551 381 540 q 357 565 367 554 q 333 592 347 576 q 294 526 313 553 q 268 506 275 499 q 264 524 264 511 q 268 550 264 536 q 276 569 269 554 q 290 606 282 585 q 219 590 250 594 q 189 596 189 586 q 222 626 194 614 q 244 635 226 629 q 285 649 261 640 q 254 687 267 669 q 239 710 242 704 q 233 742 228 731 z "},"^":{"ha":693,"x_min":144,"x_max":583,"o":"m 553 471 q 535 482 544 475 q 513 506 526 489 q 480 549 500 522 q 431 619 460 576 q 406 655 421 633 q 379 694 392 676 q 353 735 367 714 q 329 767 339 756 q 317 788 322 779 q 310 796 311 796 q 301 781 310 796 q 281 742 293 765 q 253 689 268 718 q 224 632 239 660 q 197 581 210 604 q 179 544 185 557 q 163 513 168 518 q 150 513 157 507 q 147 516 149 514 q 144 519 144 518 q 149 533 144 521 q 161 564 154 546 q 176 603 168 582 q 193 642 185 624 q 219 703 206 672 q 253 768 233 733 q 272 806 264 788 q 282 829 281 824 q 307 853 292 851 q 326 849 317 854 q 356 829 336 844 q 394 790 372 814 q 440 735 417 765 q 488 672 464 706 q 535 604 513 638 q 569 542 558 565 q 582 500 581 518 q 567 471 583 472 q 560 470 564 469 q 553 471 556 471 z "},"":{"ha":285,"x_min":42,"x_max":365,"o":"m 164 275 q 185 275 179 275 q 204 272 192 275 q 249 214 240 257 q 251 178 251 199 q 246 142 251 157 q 244 138 244 139 q 243 133 243 136 l 243 129 q 249 128 243 128 q 264 131 256 129 q 281 135 272 133 q 294 139 290 138 q 321 149 306 142 q 344 161 336 157 q 353 167 351 167 q 360 161 356 167 q 364 154 365 158 q 357 146 363 150 q 315 121 344 133 q 258 103 286 108 q 245 101 251 103 q 236 100 239 100 q 224 81 232 100 q 191 26 211 50 q 151 -8 171 3 q 106 -17 129 -21 q 67 6 83 -12 q 55 25 60 15 q 47 50 50 35 q 47 103 42 75 q 64 158 51 131 q 69 173 68 168 q 69 185 69 178 q 82 233 67 208 q 125 269 97 257 q 142 274 138 274 q 164 275 147 275 m 158 233 q 142 224 146 233 q 129 215 132 218 q 129 211 126 211 q 131 208 129 210 l 135 204 q 135 161 146 193 q 132 146 131 146 q 156 134 139 140 q 183 125 172 128 l 190 125 l 194 139 q 201 176 199 161 q 197 204 203 192 q 184 226 194 219 q 158 233 174 233 m 119 113 q 117 104 118 111 q 115 88 115 97 q 114 69 114 78 q 115 57 114 61 q 138 53 121 44 q 171 90 154 63 l 178 100 l 161 103 q 132 110 143 103 q 128 112 129 111 q 124 113 126 113 l 119 113 z "},"":{"ha":551,"x_min":26,"x_max":565,"o":"m 563 -106 l 556 -112 q 549 -110 553 -111 q 541 -107 546 -108 q 533 -103 536 -106 q 440 -32 474 -71 q 386 64 406 7 q 376 101 379 83 q 367 156 372 118 q 358 199 361 189 q 347 210 354 210 q 314 203 335 213 q 268 178 293 194 q 226 140 251 164 q 177 92 201 117 q 133 47 153 68 q 108 18 114 26 q 86 -8 101 -4 q 56 -11 71 -15 q 33 8 40 -7 q 30 55 26 24 q 53 149 33 86 q 125 279 92 265 q 149 279 138 283 q 164 260 160 275 q 167 224 169 244 q 149 158 164 204 q 131 105 136 124 q 125 83 125 86 l 171 129 q 210 167 193 151 q 241 194 226 182 q 268 214 256 206 q 294 231 281 222 q 365 245 336 253 q 415 197 393 238 q 427 170 421 188 q 449 113 433 153 q 470 49 463 71 q 493 1 478 28 q 521 -47 508 -26 q 549 -83 533 -68 q 558 -94 553 -90 q 564 -101 563 -99 l 563 -103 l 563 -106 m 565 -103 q 564 -101 565 -101 q 565 -103 565 -101 z "},"C":{"ha":804,"x_min":-54,"x_max":1096,"o":"m 1093 1143 q 1056 1043 1082 1097 q 985 922 1029 989 q 826 724 914 815 q 644 569 739 632 q 617 565 624 554 q 626 586 611 575 q 669 619 642 597 q 717 661 697 642 q 874 834 800 735 q 1001 1038 949 933 q 1035 1117 1025 1085 q 1046 1172 1046 1149 q 1045 1190 1046 1186 q 1042 1197 1044 1194 q 1035 1201 1039 1200 q 1019 1203 1031 1201 q 925 1181 983 1206 q 801 1111 867 1156 q 492 802 646 1006 q 189 300 339 599 q 57 -3 103 126 q 0 -232 11 -132 q -3 -316 -6 -276 q 9 -387 0 -356 q 33 -440 18 -418 q 67 -467 47 -461 q 109 -467 82 -472 q 169 -449 136 -462 q 345 -347 254 -415 q 532 -176 436 -279 q 685 3 622 -81 q 782 153 749 86 q 792 172 788 164 q 797 179 796 179 q 805 181 800 182 q 813 176 810 179 q 815 169 815 172 q 810 156 814 167 q 763 64 794 115 q 692 -44 732 13 q 603 -157 651 -100 q 506 -265 556 -214 q 369 -389 436 -337 q 233 -474 301 -440 q 157 -506 190 -496 q 96 -519 124 -517 q -49 -368 -15 -525 q -52 -342 -51 -358 q -53 -307 -53 -325 q -54 -270 -54 -289 q -53 -237 -54 -251 q 150 338 -32 -24 q 438 816 292 618 q 735 1126 583 1014 q 872 1212 806 1179 q 992 1253 938 1244 q 1090 1214 1067 1265 q 1095 1181 1094 1204 q 1093 1143 1096 1158 z "},"A":{"ha":1063,"x_min":-14,"x_max":1342,"o":"m 1304 1215 q 1324 1211 1315 1215 q 1339 1158 1342 1197 q 1333 1120 1338 1142 q 1317 1058 1329 1099 q 1280 947 1304 1017 q 1217 761 1256 876 q 1086 367 1142 538 q 993 68 1031 196 q 951 -79 969 -15 q 916 -209 933 -143 q 879 -353 899 -275 q 833 -542 860 -431 q 814 -619 819 -599 q 803 -650 808 -640 q 761 -674 790 -674 q 728 -658 739 -674 q 719 -637 721 -650 q 724 -615 718 -624 q 728 -606 725 -612 q 735 -583 731 -599 q 745 -544 739 -568 q 760 -483 751 -519 q 772 -433 769 -446 q 774 -407 774 -419 q 762 -312 772 -365 q 736 -217 751 -258 q 628 -60 700 -124 q 453 32 557 3 q 436 36 443 35 q 428 38 429 38 q 414 18 426 38 q 383 -31 401 -1 q 343 -97 365 -60 q 299 -169 321 -133 q 257 -237 276 -206 q 226 -290 238 -269 q 206 -321 211 -318 q 192 -314 194 -326 q 192 -304 190 -310 q 204 -279 194 -299 q 265 -169 225 -236 q 358 -14 304 -101 q 383 26 374 10 q 392 43 393 43 q 374 47 390 44 q 335 49 357 49 q 291 49 314 50 q 254 47 268 49 q 172 25 228 44 q 46 -24 115 6 q 17 -35 29 -31 q 1 -40 4 -40 q -14 -28 -14 -40 q -11 -16 -14 -21 q 1 -4 -8 -11 q 85 35 32 15 q 192 65 138 54 q 222 74 199 68 q 268 88 244 81 q 315 101 289 93 q 367 117 342 110 q 415 129 393 124 q 444 138 436 135 l 456 140 l 474 168 q 508 219 485 185 q 558 294 531 254 q 610 374 585 335 q 653 436 636 413 q 822 676 742 565 q 972 878 903 788 q 1099 1036 1042 968 q 1200 1146 1157 1104 q 1243 1185 1226 1172 q 1276 1207 1260 1197 q 1291 1214 1286 1213 q 1304 1215 1296 1215 m 1303 1186 q 1267 1167 1293 1186 q 1154 1056 1224 1135 q 995 861 1085 976 q 801 598 906 746 q 583 279 696 450 q 525 191 550 228 q 500 153 500 154 q 510 153 499 151 q 539 160 522 156 q 616 175 571 167 q 693 186 661 183 q 926 174 846 206 l 938 169 l 942 182 q 986 317 965 254 q 1027 437 1007 379 q 1069 551 1047 494 q 1115 669 1090 607 q 1170 801 1140 731 q 1236 957 1200 872 q 1263 1019 1253 993 q 1281 1065 1274 1046 q 1294 1100 1289 1085 q 1303 1131 1299 1115 q 1309 1167 1308 1150 q 1306 1186 1310 1183 l 1303 1186 m 801 150 q 733 148 769 150 q 656 140 696 146 q 582 129 626 136 q 508 115 538 122 q 494 112 500 113 q 482 110 488 111 q 472 108 476 108 q 467 102 471 108 q 457 86 464 96 q 445 66 446 71 q 451 61 444 61 q 466 58 454 61 q 492 49 478 54 q 520 38 506 43 q 543 28 535 32 q 705 -102 644 -21 q 790 -306 765 -183 q 794 -318 793 -312 q 796 -325 794 -324 q 799 -315 796 -326 q 807 -287 803 -304 q 836 -177 819 -236 q 869 -62 853 -118 q 899 42 885 -6 q 922 119 913 90 q 924 133 925 131 q 908 139 922 136 q 801 150 867 150 m 424 97 q 410 93 422 96 q 383 86 399 90 l 346 76 l 367 75 q 385 74 375 75 q 399 72 394 74 q 407 71 401 71 l 411 71 q 419 83 411 72 q 426 97 428 96 l 424 97 z "},"B":{"ha":679,"x_min":-182,"x_max":917,"o":"m 863 1176 q 883 1172 872 1176 q 910 1088 917 1157 q 881 968 906 1042 q 819 806 857 894 q 733 622 782 718 q 629 432 683 525 q 572 340 601 386 q 512 252 542 294 q 452 172 482 210 q 396 106 422 135 q 383 90 389 99 q 378 85 381 86 q 396 83 386 83 l 439 83 q 491 81 475 82 q 518 78 507 81 l 535 75 l 571 93 q 672 141 626 124 q 742 161 718 158 q 757 161 754 163 q 763 156 760 160 q 764 144 767 151 q 743 136 761 140 q 685 117 717 131 q 604 81 653 104 l 564 60 l 569 50 q 569 -24 588 25 q 489 -165 551 -74 q 369 -324 433 -249 q 238 -460 304 -399 q 107 -565 172 -521 q -14 -628 42 -608 q -70 -640 -42 -637 q -118 -637 -99 -643 q -165 -608 -149 -629 q -179 -557 -182 -586 q -173 -530 -178 -543 q -157 -501 -168 -517 q -128 -464 -146 -485 q -81 -414 -110 -443 l -51 -383 l -53 -369 q -50 -351 -53 -354 q -44 -347 -49 -347 q -40 -332 -43 -347 q -33 -292 -36 -317 q 10 -70 -17 -187 q 69 169 36 47 q 140 412 101 290 q 218 647 178 533 q 300 861 258 760 q 382 1043 342 963 q 394 1069 389 1058 q 399 1083 399 1081 q 404 1094 399 1089 q 415 1099 410 1099 q 426 1093 421 1099 q 430 1083 429 1089 q 426 1063 431 1076 q 413 1028 422 1050 q 389 969 404 1006 q 328 822 357 893 q 274 681 300 751 q 224 538 247 610 q 176 389 200 465 q 144 279 161 339 q 112 167 126 219 q 88 77 97 114 q 81 38 79 40 q 97 40 81 36 q 108 43 104 42 q 116 52 111 44 q 128 78 121 60 q 153 132 136 96 q 296 433 221 288 q 447 704 371 579 q 595 929 522 829 q 732 1092 668 1029 q 863 1176 817 1176 m 860 1150 q 778 1101 832 1147 q 662 976 725 1056 q 531 792 599 896 q 393 563 463 688 q 260 306 324 439 q 222 224 242 268 q 184 143 201 181 q 156 81 167 106 q 146 54 146 56 q 154 56 149 54 q 163 56 158 56 q 174 58 167 57 q 199 63 185 61 q 219 67 213 65 q 233 69 226 68 q 243 72 240 71 q 259 85 246 74 q 288 114 272 97 q 320 148 304 131 q 347 178 336 165 q 560 465 451 296 q 767 833 668 635 q 841 993 815 929 q 875 1097 867 1057 q 877 1125 878 1111 q 872 1144 876 1139 q 860 1150 867 1150 m 432 58 q 388 58 408 58 q 363 57 368 58 q 349 53 353 56 q 335 43 346 51 q 219 -42 271 -17 q 184 -56 197 -53 q 151 -61 171 -60 q 131 -62 139 -62 q 104 -56 122 -61 q 97 -62 101 -54 q 78 -108 93 -71 q 26 -243 43 -196 q 6 -311 10 -290 q 3 -326 4 -319 q 3 -332 1 -332 l 8 -326 q 24 -312 13 -324 q 258 -112 142 -203 q 471 38 374 -22 q 495 52 492 50 q 494 57 499 54 q 474 58 492 57 q 432 58 456 58 m 506 26 q 280 -132 394 -40 q 57 -332 165 -224 q -35 -431 -3 -393 q -83 -504 -67 -469 q -98 -537 -94 -524 q -97 -554 -101 -551 q -71 -555 -92 -558 q -31 -543 -50 -551 q 126 -446 36 -515 q 328 -264 215 -376 q 382 -210 360 -233 q 422 -167 404 -186 q 454 -132 440 -149 q 483 -96 468 -115 q 550 22 550 -12 q 544 39 550 32 l 539 46 l 506 26 m 200 38 q 190 37 199 39 q 168 32 181 35 q 135 25 138 28 q 126 13 132 24 q 122 0 121 1 q 138 3 124 -3 q 164 15 153 8 q 176 22 171 18 q 188 29 182 26 q 200 38 193 33 m 97 15 q 86 13 94 15 l 79 10 l 85 6 q 99 6 94 -1 q 97 15 103 15 m 64 -25 q 60 -42 64 -25 q 51 -80 56 -60 q 42 -117 46 -100 q 39 -136 39 -135 q 46 -122 39 -136 q 60 -89 53 -107 q 73 -56 67 -71 q 79 -39 79 -40 q 78 -36 79 -37 q 75 -34 76 -35 q 72 -31 74 -33 q 64 -25 64 -22 z "}}}
